<svg xmlns="http://www.w3.org/2000/svg" version="1.1" xmlns:xlink="http://www.w3.org/1999/xlink" xmlns:svgjs="http://svgjs.com/svgjs" width="1920" height="1080" preserveAspectRatio="none" viewBox="0 0 1920 1080"><g mask="url(&quot;#SvgjsMask1119&quot;)" fill="none"><rect width="1920" height="1080" x="0" y="0" fill="rgba(55, 83, 58, 1)"></rect><path d="M0,872.942C158.152,844.809,274.833,724.209,404.394,629.249C525.578,540.429,685.043,477.232,733.798,335.114C781.996,194.621,668.115,53.894,652.447,-93.808C635.921,-249.601,737.947,-432.257,639.473,-554.107C541.523,-675.309,346.346,-627.819,194.082,-660.983C54.711,-691.339,-75.164,-749.941,-217.507,-740.762C-386.686,-729.852,-580.842,-727.469,-696.532,-603.549C-812.495,-479.336,-777.422,-283.454,-801.489,-115.237C-825.537,52.846,-889.76,220.935,-837.609,382.523C-782.757,552.481,-662.905,701.455,-508.788,791.69C-357.515,880.26,-172.586,903.642,0,872.942" fill="#2f4731"></path><path d="M1920 1932.175C2077.449 1956.216 2227.367 1851.5149999999999 2352.477 1752.9470000000001 2470.006 1660.351 2549.756 1531.863 2604.7309999999998 1392.7060000000001 2657.5879999999997 1258.909 2654.422 1117.284 2660.384 973.549 2667.7290000000003 796.472 2740.343 601.4680000000001 2643.715 452.898 2546.294 303.10900000000004 2346.86 258.284 2171.824 222.36699999999996 2006.778 188.5 1831.71 186.43100000000004 1677.66 254.66499999999996 1532.689 318.87800000000004 1439.5140000000001 455.26099999999997 1350.221 586.283 1269.513 704.7090000000001 1215.6570000000002 834.191 1187.011 974.612 1156.8780000000002 1122.3220000000001 1105.562 1286.925 1180.62 1417.663 1255.199 1547.567 1441.864 1547.121 1564.815 1632.679 1694.561 1722.966 1763.742 1908.316 1920 1932.175" fill="#3f6043"></path></g><defs><mask id="SvgjsMask1119"><rect width="1920" height="1080" fill="#ffffff"></rect></mask></defs></svg>