<svg width="36" height="36" viewBox="0 0 36 36" fill="none" xmlns="http://www.w3.org/2000/svg">
<g clip-path="url(#clip0_99_52)">
<path fill-rule="evenodd" clip-rule="evenodd" d="M12.5509 7.75948C12.1575 7.36077 11.6204 7.13681 11.0603 7.13793C9.89388 7.13793 8.94828 8.08354 8.94828 9.25C8.94266 8.08587 8.00034 7.14355 6.83621 7.13793C5.66974 7.13793 4.72414 8.08354 4.72414 9.25V9.85345C4.71852 8.68932 3.7762 7.74699 2.61207 7.74138C1.44561 7.74138 0.5 8.68699 0.5 9.85345V14.0776C0.5 15.2441 1.44561 16.1897 2.61207 16.1897C3.77853 16.1897 4.72414 15.2441 4.72414 14.0776V15.2845C4.72414 16.4509 5.66974 17.3966 6.83621 17.3966C8.00267 17.3966 8.94828 16.4509 8.94828 15.2845V15.8879C8.94828 17.0544 9.89388 18 11.0603 18C12.2268 18 13.1724 17.0544 13.1724 15.8879V9.25C13.1735 8.68991 12.9496 8.15285 12.5509 7.75948Z" fill="#FDD7AD"/>
<path fill-rule="evenodd" clip-rule="evenodd" d="M23.1595 15.3207L19.9612 23.1716C18.1394 27.6461 13.4048 30.2049 8.66347 29.2772C3.92215 28.3495 0.501026 24.195 0.5 19.3638V14.0776C0.5 15.2441 1.44561 16.1897 2.61207 16.1897C3.77853 16.1897 4.72414 15.2441 4.72414 14.0776V15.2845C4.72414 16.4509 5.66974 17.3966 6.83621 17.3966C8.00267 17.3966 8.94827 16.4509 8.94827 15.2845V15.8879C8.94827 17.0544 9.89388 18 11.0603 18C12.2268 18 13.1724 17.0544 13.1724 15.8879V2.61207C13.1724 1.44561 14.118 0.5 15.2845 0.5C16.4486 0.505614 17.3909 1.44794 17.3965 2.61207V16.4853L18.8388 13.4259C19.1951 12.6675 19.9289 12.1569 20.7638 12.0862C20.8336 12.0742 20.9042 12.0681 20.975 12.0681C21.2948 12.0675 21.6112 12.1333 21.9043 12.2612C23.0894 12.7657 23.6488 14.1292 23.1595 15.3207Z" fill="#FDD7AD"/>
<path fill-rule="evenodd" clip-rule="evenodd" d="M17.3965 16.4853L18.8388 13.4259C19.1951 12.6675 19.9289 12.1569 20.7638 12.0862L17.6681 18.6457C16.6268 20.8533 14.4064 22.2631 11.9655 22.2664C11.4848 22.2644 11.0232 22.4546 10.6832 22.7945C10.3433 23.1344 10.1532 23.596 10.1551 24.0767C10.1551 24.41 9.88497 24.6802 9.55169 24.6802C9.21842 24.6802 8.94824 24.41 8.94824 24.0767C8.94824 22.4103 10.2991 21.0595 11.9655 21.0595C13.9388 21.057 15.7339 19.9175 16.5758 18.1328L17.3965 16.4853Z" fill="#F9C795"/>
<path fill-rule="evenodd" clip-rule="evenodd" d="M14.3793 9.25V15.8879C14.3775 17.2617 13.5296 18.4923 12.2466 18.9833C10.9636 19.4743 9.5107 19.1242 8.59224 18.1026C7.04887 19.0625 5.02053 18.6025 4.04224 17.0707C3.59655 17.2868 3.10739 17.3983 2.61207 17.3966C1.84086 17.3975 1.09363 17.1285 0.5 16.6362V14.0776C0.5 15.2441 1.44561 16.1897 2.61207 16.1897C3.77853 16.1897 4.72414 15.2441 4.72414 14.0776V15.2845C4.72414 16.4509 5.66974 17.3966 6.83621 17.3966C8.00267 17.3966 8.94828 16.4509 8.94828 15.2845V15.8879C8.94828 17.0544 9.89388 18 11.0603 18C12.2268 18 13.1724 17.0544 13.1724 15.8879V6.69741C13.2572 6.76493 13.3378 6.83747 13.4138 6.91466C14.0356 7.53227 14.3834 8.37362 14.3793 9.25Z" fill="#F9C795"/>
<path fill-rule="evenodd" clip-rule="evenodd" d="M15.2845 4.12069C15.8274 4.12346 16.3166 4.44861 16.5294 4.94802L17.2125 6.51698C17.5087 7.17736 17.4534 7.94235 17.0653 8.55325C16.6772 9.16415 16.0082 9.53926 15.2845 9.55172C14.5614 9.539 13.8929 9.16413 13.5049 8.55376C13.1168 7.94338 13.0611 7.179 13.3565 6.51879L14.0396 4.94983C14.2518 4.44971 14.7412 4.12377 15.2845 4.12069Z" fill="#E64C3C"/>
<path fill-rule="evenodd" clip-rule="evenodd" d="M35.5001 26.4483C35.5002 30.9271 32.2248 34.7326 27.7959 35.3994C23.367 36.0661 19.1164 33.3937 17.7978 29.1134C16.4792 24.8331 18.4892 20.232 22.5255 18.291C26.5619 16.35 31.4109 17.6527 33.9311 21.3552C34.9532 22.857 35.4998 24.6316 35.5001 26.4483Z" fill="#F0C419"/>
<path fill-rule="evenodd" clip-rule="evenodd" d="M26.4482 19.2407C26.1149 19.2407 25.8447 19.5109 25.8447 19.8441V22.2579C25.8447 22.5912 26.1149 22.8614 26.4482 22.8614C26.7815 22.8614 27.0516 22.5912 27.0516 22.2579V19.8441C27.0516 19.5109 26.7815 19.2407 26.4482 19.2407Z" fill="#DF4D60"/>
<path fill-rule="evenodd" clip-rule="evenodd" d="M29.5905 24.7966L30.9223 23.4648H31.8794C32.2127 23.4648 32.4828 23.1947 32.4828 22.8614C32.4828 22.5281 32.2127 22.2579 31.8794 22.2579H31.2759V21.6545C31.2759 21.3212 31.0058 21.051 30.6725 21.051C30.3392 21.051 30.069 21.3212 30.069 21.6545V22.6116L28.7372 23.9434C28.5803 24.0949 28.5174 24.3192 28.5727 24.5302C28.6279 24.7412 28.7927 24.906 29.0036 24.9612C29.2146 25.0164 29.439 24.9535 29.5905 24.7966Z" fill="#DF4D60"/>
<path fill-rule="evenodd" clip-rule="evenodd" d="M22.8276 22.6116V21.6545C22.8276 21.3212 22.5574 21.051 22.2242 21.051C21.8909 21.051 21.6207 21.3212 21.6207 21.6545V22.2579H21.0173C20.684 22.2579 20.4138 22.5281 20.4138 22.8614C20.4138 23.1947 20.684 23.4648 21.0173 23.4648H21.9743L23.2561 24.7466C23.4928 24.9752 23.8692 24.972 24.102 24.7392C24.3348 24.5064 24.338 24.1301 24.1093 23.8933L22.8276 22.6116Z" fill="#DF4D60"/>
<path fill-rule="evenodd" clip-rule="evenodd" d="M31.8793 29.4993H30.9223L29.8005 28.3793C29.6489 28.2224 29.4246 28.1595 29.2136 28.2148C29.0026 28.27 28.8378 28.4347 28.7826 28.6457C28.7274 28.8567 28.7903 29.0811 28.9472 29.2326L30.069 30.3526V31.3097C30.069 31.6429 30.3392 31.9131 30.6724 31.9131C31.0057 31.9131 31.2759 31.6429 31.2759 31.3097V30.7062H31.8793C32.2126 30.7062 32.4828 30.436 32.4828 30.1028C32.4828 29.7695 32.2126 29.4993 31.8793 29.4993Z" fill="#DF4D60"/>
<path fill-rule="evenodd" clip-rule="evenodd" d="M23.0159 28.4572L21.9743 29.4993H21.0173C20.684 29.4993 20.4138 29.7695 20.4138 30.1028C20.4138 30.436 20.684 30.7062 21.0173 30.7062H21.6207V31.3097C21.6207 31.6429 21.8909 31.9131 22.2242 31.9131C22.5574 31.9131 22.8276 31.6429 22.8276 31.3097V30.3526L23.8698 29.3104C24.1054 29.0746 24.1053 28.6925 23.8695 28.4569C23.6337 28.2212 23.2515 28.2214 23.0159 28.4572Z" fill="#DF4D60"/>
<path fill-rule="evenodd" clip-rule="evenodd" d="M26.4482 30.0533C26.1149 30.0533 25.8447 30.3234 25.8447 30.6567V33.12C25.8447 33.4533 26.1149 33.7234 26.4482 33.7234C26.7815 33.7234 27.0516 33.4533 27.0516 33.12V30.6567C27.0516 30.3234 26.7815 30.0533 26.4482 30.0533Z" fill="#DF4D60"/>
<path fill-rule="evenodd" clip-rule="evenodd" d="M32.4828 25.8786H29.4655C29.1322 25.8786 28.8621 26.1488 28.8621 26.4821C28.8621 26.8153 29.1322 27.0855 29.4655 27.0855H32.4828C32.816 27.0855 33.0862 26.8153 33.0862 26.4821C33.0862 26.1488 32.816 25.8786 32.4828 25.8786Z" fill="#DF4D60"/>
<path fill-rule="evenodd" clip-rule="evenodd" d="M23.4431 25.8786H20.4138C20.0805 25.8786 19.8103 26.1488 19.8103 26.4821C19.8103 26.8153 20.0805 27.0855 20.4138 27.0855H23.4431C23.7763 27.0855 24.0465 26.8153 24.0465 26.4821C24.0465 26.1488 23.7763 25.8786 23.4431 25.8786Z" fill="#DF4D60"/>
<path fill-rule="evenodd" clip-rule="evenodd" d="M28.0457 22.489C28.0457 22.6358 28.0206 22.7816 27.9715 22.9199C27.5164 23.0976 27.1263 23.4097 26.8533 23.8148C26.8216 23.8627 26.793 23.9124 26.7676 23.9639C26.7465 23.9156 26.7199 23.8679 26.6934 23.8197C26.4165 23.3401 25.964 22.9869 25.4316 22.8348C25.3995 22.7224 25.3833 22.606 25.3833 22.489C25.3833 22.4353 25.3887 22.3768 25.3942 22.3237C25.3938 22.3145 25.3957 22.3054 25.3996 22.2972C25.4045 22.2464 25.4152 22.1964 25.4316 22.1481C25.5972 21.4968 26.2235 21.072 26.8899 21.1589C27.5563 21.2458 28.0527 21.817 28.0457 22.489Z" fill="#FB7B76"/>
<path fill-rule="evenodd" clip-rule="evenodd" d="M28.0457 22.489C28.0457 22.6358 28.0206 22.7816 27.9715 22.9199C27.5164 23.0976 27.1263 23.4097 26.8533 23.8148C26.8216 23.8627 26.793 23.9124 26.7676 23.9639C26.7465 23.9156 26.7199 23.8679 26.6934 23.8197C26.4165 23.3401 25.964 22.9869 25.4316 22.8348C25.3995 22.7224 25.3833 22.606 25.3833 22.489C25.3833 22.4353 25.3887 22.3768 25.3942 22.3237C25.3938 22.3145 25.3957 22.3054 25.3996 22.2972C25.4045 22.2497 25.4152 22.2031 25.4316 22.1584C25.9641 22.3107 26.4165 22.6641 26.6934 23.1438C26.7199 23.1915 26.7465 23.2397 26.7676 23.2874C26.7932 23.2361 26.8218 23.1863 26.8533 23.1384C27.1371 22.7216 27.5451 22.4049 28.0192 22.2332C28.0363 22.3174 28.0452 22.4031 28.0457 22.489Z" fill="#DF4D60"/>
<path fill-rule="evenodd" clip-rule="evenodd" d="M26.4483 25.1509C26.4474 25.4266 26.4941 25.7003 26.5865 25.9601C26.541 25.9516 26.4946 25.9481 26.4483 25.9498C25.8708 25.9515 25.3385 26.2624 25.0532 26.7645C24.7111 26.2528 24.1352 25.9469 23.5198 25.9498C23.3597 25.949 23.2002 25.9705 23.0461 26.0138C22.8329 25.6759 22.7203 25.2843 22.7214 24.8847C22.7213 24.3199 22.9456 23.7781 23.345 23.3787C23.7444 22.9793 24.2862 22.755 24.851 22.7552C25.0473 22.7545 25.2427 22.7813 25.4315 22.8348C25.964 22.9869 26.4165 23.3401 26.6933 23.8197C26.7199 23.8679 26.7464 23.9156 26.7676 23.9639C26.5556 24.3233 26.4453 24.7336 26.4483 25.1509Z" fill="#FB7B76"/>
<path fill-rule="evenodd" clip-rule="evenodd" d="M25.2185 28.564C25.2016 28.6137 25.1802 28.6618 25.1545 28.7076C25.0025 28.9935 24.7739 29.2315 24.4943 29.3949C24.4688 29.4144 24.442 29.4322 24.4141 29.448C23.7828 29.794 23.0087 29.7452 22.4259 29.3226C21.8431 28.9 21.5561 28.1794 21.6887 27.4719C21.8213 26.7644 22.3498 26.1966 23.0461 26.0138C23.2002 25.9705 23.3597 25.949 23.5198 25.9498C24.1352 25.9469 24.7111 26.2528 25.0531 26.7645C24.7321 27.3411 24.7978 28.0555 25.2185 28.564Z" fill="#FB7B76"/>
<path fill-rule="evenodd" clip-rule="evenodd" d="M27.561 30.2253C27.5359 30.6539 27.3404 31.0546 27.0179 31.338C26.8542 31.4869 26.6597 31.5977 26.4483 31.6627C26.2861 31.7211 26.1149 31.7501 25.9426 31.7484C25.5118 31.7484 25.0986 31.5772 24.7941 31.2725C24.4895 30.9679 24.3185 30.5547 24.3187 30.1239C24.3161 29.8701 24.3764 29.6197 24.4943 29.3949C24.7739 29.2315 25.0025 28.9935 25.1545 28.7076C25.1801 28.6618 25.2015 28.6137 25.2184 28.564C25.245 28.5959 25.2715 28.6279 25.3035 28.6599C25.6044 28.9697 26.0182 29.1439 26.4501 29.1427C26.534 29.1436 26.6179 29.1366 26.7005 29.1216C26.8004 29.1072 26.8986 29.0821 26.9932 29.0467C27.0312 29.496 27.2334 29.9155 27.561 30.2253Z" fill="#FB7B76"/>
<path fill-rule="evenodd" clip-rule="evenodd" d="M26.9806 28.8784C26.9788 28.9353 26.9824 28.9923 26.9914 29.0485C26.8968 29.0839 26.7987 29.109 26.6988 29.1234C26.6161 29.1384 26.5323 29.1454 26.4483 29.1445C26.0165 29.1457 25.6027 28.9715 25.3018 28.6617C25.2698 28.6297 25.2414 28.5978 25.2167 28.5658C24.796 28.0574 24.7303 27.3429 25.0513 26.7663C25.3365 26.2629 25.8698 25.9512 26.4483 25.9498C26.4946 25.9481 26.541 25.9516 26.5865 25.9601C27.2861 26.0172 27.8657 26.5255 28.0137 27.2116C27.3816 27.5269 26.9817 28.172 26.9806 28.8784Z" fill="#FB7B76"/>
<path fill-rule="evenodd" clip-rule="evenodd" d="M30.7079 28.8784C30.7091 29.624 30.265 30.2984 29.5795 30.5918C28.894 30.8851 28.0996 30.7409 27.5609 30.2253C27.233 29.9162 27.0303 29.4974 26.9913 29.0485C26.9823 28.9923 26.9786 28.9353 26.9804 28.8784C26.9816 28.172 27.3814 27.5269 28.0135 27.2116C28.271 27.081 28.5558 27.0136 28.8445 27.0149C29.8728 27.0169 30.7059 27.85 30.7079 28.8784Z" fill="#FB7B76"/>
<path fill-rule="evenodd" clip-rule="evenodd" d="M27.561 30.2253C27.536 30.6538 27.3404 31.0546 27.0179 31.338C26.8543 31.4868 26.6597 31.5977 26.4483 31.6627C26.2862 31.7211 26.1149 31.7501 25.9426 31.7484C25.5118 31.7484 25.0987 31.5772 24.7941 31.2725C24.4896 30.9679 24.3185 30.5547 24.3187 30.1239C24.3166 29.9516 24.3455 29.7803 24.4038 29.6182C24.6161 30.2887 25.2392 30.7438 25.9426 30.7418C26.1148 30.7434 26.286 30.7146 26.4483 30.6567C26.6595 30.5913 26.854 30.4805 27.0179 30.3321C27.1408 30.2242 27.2468 30.0985 27.3323 29.9591C27.3982 30.0562 27.4749 30.1455 27.561 30.2253Z" fill="#DF4D60"/>
<path fill-rule="evenodd" clip-rule="evenodd" d="M31.2403 25.1509C31.2441 26.0811 30.7024 26.9272 29.856 27.313C29.5542 27.1191 29.2033 27.0156 28.8446 27.0149C28.5559 27.0136 28.2711 27.081 28.0136 27.2116C27.8657 26.5255 27.286 26.0172 26.5865 25.9601C26.4941 25.7003 26.4473 25.4266 26.4483 25.1509C26.4453 24.7336 26.5556 24.3233 26.7675 23.9639C26.7929 23.9125 26.8216 23.8627 26.8532 23.8148C27.4416 22.9398 28.5326 22.5519 29.5412 22.8591C30.5499 23.1663 31.2395 24.0964 31.2403 25.1509Z" fill="#FB7B76"/>
<path fill-rule="evenodd" clip-rule="evenodd" d="M31.2403 25.1509C31.2441 26.0811 30.7024 26.9272 29.856 27.313C29.5543 27.1191 29.2033 27.0156 28.8446 27.0149C28.556 27.0136 28.2711 27.081 28.0137 27.2116C27.8657 26.5255 27.2861 26.0172 26.5865 25.9601C26.541 25.9516 26.4946 25.9481 26.4483 25.9498C25.8708 25.9515 25.3385 26.2624 25.0532 26.7645C24.7111 26.2528 24.1352 25.9469 23.5198 25.9498C23.3597 25.949 23.2002 25.9705 23.0461 26.0138C22.8329 25.6759 22.7203 25.2843 22.7214 24.8847C22.723 24.7474 22.7353 24.6104 22.7583 24.475C22.8094 24.7319 22.907 24.9773 23.0461 25.1991C23.2002 25.1558 23.3597 25.1343 23.5198 25.1352C24.1352 25.1322 24.7111 25.4382 25.0532 25.9498C25.3385 25.4477 25.8708 25.1368 26.4483 25.1352C27.1994 25.1275 27.8528 25.6476 28.0137 26.3813C28.2711 26.2505 28.5559 26.1828 28.8446 26.184C29.2033 26.1847 29.5543 26.2881 29.856 26.4821C30.5678 26.1587 31.0725 25.5029 31.2029 24.7321C31.2289 24.8701 31.2415 25.0104 31.2403 25.1509Z" fill="#DF4D60"/>
<path fill-rule="evenodd" clip-rule="evenodd" d="M30.6277 28.3455C30.3917 29.1338 29.6673 29.6746 28.8445 29.6767C28.3659 29.6773 27.9057 29.4921 27.5609 29.1602C27.4645 29.0697 27.3789 28.9685 27.3057 28.8584C27.2193 28.7379 27.1509 28.6053 27.1029 28.465C26.8983 28.5622 26.6747 28.6125 26.4482 28.6122C26.0163 28.6135 25.6025 28.4393 25.3016 28.1295C25.2696 28.0975 25.2413 28.0655 25.2165 28.0335C25.0361 27.8214 24.9181 27.5635 24.8756 27.2883C24.8561 27.3738 24.8471 27.4613 24.849 27.549C24.8485 27.8241 24.92 28.0946 25.0566 28.3335C24.9123 28.552 24.7191 28.734 24.4924 28.8651C24.467 28.885 24.4402 28.9029 24.4121 28.9188C23.8759 29.2123 23.2298 29.2238 22.6835 28.9495C22.1371 28.6752 21.7604 28.1501 21.6755 27.5447C21.6605 27.6345 21.6534 27.7253 21.6544 27.8163C21.6544 28.4744 22.0015 29.0836 22.5676 29.4192C23.1337 29.7548 23.8348 29.7669 24.4121 29.451C24.4401 29.4352 24.4669 29.4174 24.4924 29.3979C24.772 29.2346 25.0006 28.9966 25.1526 28.7106C25.1782 28.6648 25.1997 28.6167 25.2165 28.567C25.2431 28.599 25.2696 28.6309 25.3016 28.6629C25.6025 28.9727 26.0163 29.147 26.4482 29.1457C26.5321 29.1467 26.616 29.1396 26.6986 29.1246C26.7986 29.1102 26.8967 29.0851 26.9913 29.0497C27.0808 30.0072 27.8829 30.74 28.8445 30.743C29.8732 30.742 30.7069 29.9083 30.7079 28.8796C30.7093 28.6985 30.6822 28.5182 30.6277 28.3455Z" fill="#DF4D60"/>
</g>
<defs>
<clipPath id="clip0_99_52">
<rect width="35" height="35" fill="white" transform="translate(0.5 0.5)"/>
</clipPath>
</defs>
</svg>
