<svg width="36" height="36" viewBox="0 0 36 36" fill="none" xmlns="http://www.w3.org/2000/svg">
<g clip-path="url(#clip0_103_187)">
<path fill-rule="evenodd" clip-rule="evenodd" d="M25.4164 2.20172L22.3992 10.6578L25.4164 19.8465C25.4147 21.267 26.4165 22.4908 27.8093 22.7696C29.2021 23.0485 30.5979 22.3047 31.1431 20.9931C31.8122 20.9934 32.454 20.7278 32.9271 20.2547C33.4002 19.7815 33.6659 19.1398 33.6655 18.4707C33.6662 18.0691 33.5688 17.6735 33.3819 17.3181C34.1027 17.2652 34.7559 16.8746 35.1435 16.2646C35.5311 15.6547 35.6074 14.8974 35.3492 14.2224C35.2048 13.8397 34.9586 13.5037 34.6371 13.2509L34.6311 13.2448C35.2129 12.6615 35.527 11.8631 35.4984 11.0397C35.4698 10.2163 35.1011 9.44155 34.4802 8.89999C34.548 8.66046 34.5826 8.41273 34.5828 8.16379C34.5855 6.68818 33.4202 5.47491 31.9457 5.4181C32.1598 5.09126 32.277 4.71048 32.2837 4.31982C32.2886 4.30217 32.2907 4.28382 32.2897 4.26551C32.2889 3.39871 31.7465 2.62481 30.9319 2.32844H30.9259C30.9199 2.32241 30.9138 2.32241 30.9078 2.31637C30.4257 1.96069 29.924 1.6323 29.4052 1.33275C29.3268 1.29051 29.2604 1.24827 29.188 1.21206C25.4164 -0.833628 25.4164 2.20172 25.4164 2.20172Z" fill="#FF5364"/>
<path fill-rule="evenodd" clip-rule="evenodd" d="M29.0611 7.05345C29.135 7.08674 29.2154 7.10323 29.2965 7.10173C29.5386 7.10153 29.7572 6.9566 29.8516 6.73363C30.1835 5.93343 30.9647 5.41187 31.8309 5.41208C31.8689 5.41726 31.9073 5.41927 31.9456 5.41811C32.1597 5.09128 32.2769 4.71049 32.2835 4.31983C32.2141 4.26402 32.1305 4.22851 32.0422 4.21725C31.9722 4.20722 31.9016 4.20318 31.8309 4.20518C30.4802 4.20489 29.2617 5.01647 28.7413 6.26294C28.6775 6.41003 28.6754 6.57659 28.7355 6.72522C28.7957 6.87385 28.913 6.99211 29.0611 7.05345Z" fill="#DF4D60"/>
<path fill-rule="evenodd" clip-rule="evenodd" d="M32.3862 14.5121C32.3862 14.8453 32.6564 15.1155 32.9897 15.1155C33.8595 15.1193 34.6999 14.8012 35.3492 14.2224C35.2048 13.8397 34.9586 13.5037 34.6371 13.2509C34.1926 13.6732 33.6028 13.9087 32.9897 13.9086C32.6564 13.9086 32.3862 14.1788 32.3862 14.5121Z" fill="#DF4D60"/>
<path fill-rule="evenodd" clip-rule="evenodd" d="M28.4457 3.42069C28.5233 3.45649 28.6077 3.47502 28.6931 3.47501C28.9306 3.47575 29.1461 3.33606 29.2423 3.11897C29.4793 2.59924 29.9986 2.26639 30.5699 2.26811C30.6844 2.2655 30.7986 2.28181 30.9078 2.31638C30.4257 1.96071 29.9241 1.63232 29.4052 1.33276C28.8467 1.60243 28.4004 2.0594 28.144 2.62414C28.008 2.92744 28.1429 3.28358 28.4457 3.42069Z" fill="#DF4D60"/>
<path fill-rule="evenodd" clip-rule="evenodd" d="M29.5289 11.5027C28.6635 11.4483 27.8478 11.0791 27.2358 10.4647C27.0835 10.312 27.0243 10.0896 27.0804 9.88131C27.1365 9.67303 27.2995 9.51051 27.5079 9.45498C27.7164 9.39944 27.9386 9.45933 28.0909 9.61207C28.5506 10.0719 29.1786 10.3232 29.8286 10.3075C30.4786 10.2917 31.0937 10.0103 31.5306 9.5288C31.7557 9.28692 32.1335 9.27114 32.3781 9.49338C32.6227 9.71563 32.643 10.0932 32.4237 10.3404C31.9806 10.8245 31.4133 11.1779 30.7835 11.3621C30.935 11.6574 31.1834 11.8918 31.4871 12.0259C31.6854 12.1107 31.8233 12.2948 31.8489 12.5089C31.8746 12.723 31.7841 12.9346 31.6115 13.0638C31.4389 13.1931 31.2104 13.2204 31.0122 13.1356C30.3053 12.8309 29.7645 12.2356 29.5289 11.5027Z" fill="#DF4D60"/>
<path fill-rule="evenodd" clip-rule="evenodd" d="M27.5774 13.5815C27.715 13.5814 27.8526 13.5887 27.9895 13.6033C29.1045 13.6927 30.0644 14.4252 30.445 15.477C30.8262 16.5697 30.5444 17.7843 29.7208 18.5974C29.361 18.9547 29.1567 19.4396 29.1524 19.9467C29.1524 20.28 28.8822 20.5502 28.5489 20.5502C28.2156 20.5502 27.9455 20.28 27.9455 19.9467C27.9489 19.1233 28.2772 18.3346 28.8591 17.752C29.3586 17.2681 29.5345 16.5398 29.3111 15.8813C29.0858 15.2655 28.5173 14.8415 27.8628 14.8011C27.7692 14.7909 27.6751 14.7858 27.581 14.786C27.2477 14.786 26.9775 14.5159 26.9775 14.1826C26.9775 13.8493 27.2477 13.5791 27.581 13.5791L27.5774 13.5815Z" fill="#DF4D60"/>
<path fill-rule="evenodd" clip-rule="evenodd" d="M25.4163 2.20172V19.8465C25.418 21.267 24.4161 22.4908 23.0234 22.7696C21.6306 23.0485 20.2348 22.3047 19.6895 20.9931C18.2956 20.9931 17.0163 20.1664 17.0163 18.7724C17.0156 18.3709 17.113 17.9752 17.2999 17.6198C16.1171 17.5353 15.3326 16.244 15.3326 15.0371C15.3331 14.7586 15.3842 14.4826 15.4835 14.2224C15.6278 13.8397 15.8741 13.5037 16.1956 13.2509L16.2016 13.2448C15.6197 12.6615 15.3057 11.8631 15.3343 11.0397C15.3629 10.2163 15.7316 9.44155 16.3525 8.89999C16.2846 8.66046 16.2501 8.41273 16.2499 8.16379C16.2472 6.68818 17.4124 5.47491 18.887 5.4181C18.6728 5.09126 18.5557 4.71048 18.549 4.31982C18.544 4.30217 18.542 4.28382 18.543 4.26551C18.5437 3.39871 19.0862 2.62481 19.9007 2.32844H19.9068C19.9128 2.32241 19.9188 2.32241 19.9249 2.31637C20.407 1.96069 20.9086 1.6323 21.4275 1.33275C21.5059 1.29051 21.5723 1.24827 21.6447 1.21206C25.4163 -0.833628 25.4163 2.20172 25.4163 2.20172Z" fill="#FB7B76"/>
<path fill-rule="evenodd" clip-rule="evenodd" d="M21.7715 7.05345C21.6976 7.08674 21.6172 7.10323 21.5361 7.10173C21.294 7.10153 21.0754 6.9566 20.981 6.73363C20.6491 5.93343 19.8679 5.41187 19.0017 5.41208C18.9637 5.41726 18.9253 5.41927 18.887 5.41811C18.6729 5.09128 18.5557 4.71049 18.5491 4.31983C18.6185 4.26402 18.7021 4.22851 18.7905 4.21725C18.8604 4.20722 18.931 4.20318 19.0017 4.20518C20.3524 4.20489 21.5709 5.01647 22.0913 6.26294C22.1551 6.41003 22.1572 6.57659 22.0971 6.72522C22.0369 6.87385 21.9196 6.99211 21.7715 7.05345Z" fill="#DF4D60"/>
<path fill-rule="evenodd" clip-rule="evenodd" d="M18.4466 14.5121C18.4466 14.8453 18.1764 15.1155 17.8431 15.1155C16.9733 15.1193 16.1329 14.8012 15.4836 14.2224C15.628 13.8397 15.8742 13.5037 16.1957 13.2509C16.6402 13.6732 17.23 13.9087 17.8431 13.9086C18.1764 13.9086 18.4466 14.1788 18.4466 14.5121Z" fill="#DF4D60"/>
<path fill-rule="evenodd" clip-rule="evenodd" d="M22.3871 3.42069C22.3096 3.45649 22.2251 3.47502 22.1397 3.47501C21.9022 3.47575 21.6868 3.33606 21.5906 3.11897C21.3535 2.59924 20.8342 2.26639 20.263 2.26811C20.1484 2.2655 20.0343 2.28181 19.925 2.31638C20.4071 1.96071 20.9088 1.63232 21.4276 1.33276C21.9862 1.60243 22.4325 2.0594 22.6888 2.62414C22.8248 2.92744 22.6899 3.28358 22.3871 3.42069Z" fill="#DF4D60"/>
<path fill-rule="evenodd" clip-rule="evenodd" d="M21.3039 11.5027C22.1694 11.4484 22.985 11.0792 23.597 10.4647C23.8324 10.2286 23.8319 9.84632 23.5958 9.61086C23.3596 9.37541 22.9773 9.37595 22.7419 9.61207C22.2822 10.0719 21.6542 10.3232 21.0042 10.3075C20.3542 10.2917 19.7391 10.0103 19.3022 9.5288C19.0771 9.28692 18.6992 9.27114 18.4547 9.49338C18.2101 9.71563 18.1898 10.0932 18.4091 10.3404C18.8528 10.8249 19.421 11.1783 20.0517 11.3621C19.8996 11.6578 19.6503 11.8922 19.3457 12.0259C19.0816 12.1383 18.9333 12.4212 18.991 12.7023C19.0487 12.9835 19.2964 13.1851 19.5834 13.1845C19.6651 13.1842 19.746 13.1675 19.8212 13.1356C20.5278 12.8306 21.0683 12.2354 21.3039 11.5027Z" fill="#DF4D60"/>
<path fill-rule="evenodd" clip-rule="evenodd" d="M23.2555 13.5815C23.1178 13.5815 22.9802 13.5887 22.8433 13.6033C21.7284 13.6927 20.7684 14.4252 20.3879 15.477C20.0066 16.5697 20.2885 17.7843 21.112 18.5974C21.4722 18.9545 21.6768 19.4395 21.6811 19.9467C21.6811 20.28 21.9513 20.5502 22.2845 20.5502C22.6178 20.5502 22.888 20.28 22.888 19.9467C22.8843 19.1233 22.5558 18.3345 21.9738 17.752C21.4743 17.2681 21.2983 16.5398 21.5218 15.8813C21.7471 15.2655 22.3156 14.8415 22.97 14.8011C23.0636 14.7909 23.1577 14.7859 23.2519 14.786C23.5851 14.786 23.8553 14.5159 23.8553 14.1826C23.8553 13.8493 23.5851 13.5791 23.2519 13.5791L23.2555 13.5815Z" fill="#DF4D60"/>
<path fill-rule="evenodd" clip-rule="evenodd" d="M26.0199 7.38896C26.3531 7.38896 26.6233 7.11878 26.6233 6.78551C26.622 5.69358 25.7371 4.80873 24.6452 4.8074C24.3119 4.8074 24.0417 5.07758 24.0417 5.41085C24.0417 5.74413 24.3119 6.0143 24.6452 6.0143C25.071 6.01463 25.4161 6.35972 25.4164 6.78551C25.4164 7.11878 25.6866 7.38896 26.0199 7.38896Z" fill="#FF5364"/>
<path fill-rule="evenodd" clip-rule="evenodd" d="M26.791 8.30621C26.791 7.97293 26.5209 7.70276 26.1876 7.70276C25.0957 7.70409 24.2108 8.58894 24.2095 9.68086C24.2095 10.0141 24.4796 10.2843 24.8129 10.2843C25.1462 10.2843 25.4164 10.0141 25.4164 9.68086C25.4167 9.25507 25.7618 8.90999 26.1876 8.90966C26.5209 8.90966 26.791 8.63948 26.791 8.30621Z" fill="#FB7B76"/>
<path d="M10.7586 35.5C16.4243 35.5 21.0172 30.9071 21.0172 25.2414C21.0172 19.5757 16.4243 14.9828 10.7586 14.9828C5.09294 14.9828 0.5 19.5757 0.5 25.2414C0.5 30.9071 5.09294 35.5 10.7586 35.5Z" fill="#F0C419"/>
<path fill-rule="evenodd" clip-rule="evenodd" d="M10.7585 16.7931C10.4252 16.7931 10.155 17.0633 10.155 17.3965V20.4138C10.155 20.7471 10.4252 21.0172 10.7585 21.0172C11.0918 21.0172 11.3619 20.7471 11.3619 20.4138V17.3965C11.3619 17.0633 11.0918 16.7931 10.7585 16.7931Z" fill="#DF4D60"/>
<path fill-rule="evenodd" clip-rule="evenodd" d="M13.8362 22.903C13.9732 22.9031 14.1062 22.8564 14.2133 22.7708L16.4032 21.0172H17.3965C17.7298 21.0172 17.9999 20.747 17.9999 20.4138C17.9999 20.0805 17.7298 19.8103 17.3965 19.8103H16.793V19.2069C16.793 18.8736 16.5229 18.6034 16.1896 18.6034C15.8563 18.6034 15.5862 18.8736 15.5862 19.2069V20.1241L13.4578 21.8289C13.2581 21.9891 13.1812 22.2579 13.266 22.4995C13.3509 22.741 13.5789 22.9028 13.8349 22.903H13.8362Z" fill="#DF4D60"/>
<path fill-rule="evenodd" clip-rule="evenodd" d="M5.93088 20.1241V19.2069C5.93088 18.8736 5.66071 18.6034 5.32743 18.6034C4.99416 18.6034 4.72399 18.8736 4.72399 19.2069V19.8103H4.12054C3.78726 19.8103 3.51709 20.0805 3.51709 20.4138C3.51709 20.747 3.78726 21.0172 4.12054 21.0172H5.11562L7.96511 23.3007C8.13281 23.4404 8.3629 23.4786 8.5668 23.4007C8.7707 23.3228 8.91662 23.1408 8.94839 22.9249C8.98016 22.7089 8.89283 22.4926 8.72002 22.3593L5.93088 20.1241Z" fill="#DF4D60"/>
<path fill-rule="evenodd" clip-rule="evenodd" d="M17.3965 29.4655H16.4032L13.9212 27.4741C13.7537 27.3333 13.5231 27.2942 13.3186 27.3719C13.114 27.4497 12.9676 27.632 12.9358 27.8485C12.9041 28.065 12.9921 28.2818 13.1657 28.4149L15.5861 30.3586V31.2759C15.5861 31.6091 15.8563 31.8793 16.1896 31.8793C16.5229 31.8793 16.793 31.6091 16.793 31.2759V30.6724H17.3965C17.7298 30.6724 17.9999 30.4022 17.9999 30.069C17.9999 29.7357 17.7298 29.4655 17.3965 29.4655Z" fill="#DF4D60"/>
<path fill-rule="evenodd" clip-rule="evenodd" d="M7.59881 27.4771L5.11562 29.4655H4.12054C3.78726 29.4655 3.51709 29.7357 3.51709 30.069C3.51709 30.4022 3.78726 30.6724 4.12054 30.6724H4.72399V31.2758C4.72399 31.6091 4.99416 31.8793 5.32743 31.8793C5.66071 31.8793 5.93088 31.6091 5.93088 31.2758V30.3586L8.35312 28.4197C8.61341 28.2114 8.65556 27.8316 8.44726 27.5713C8.23897 27.311 7.8591 27.2688 7.59881 27.4771Z" fill="#DF4D60"/>
<path fill-rule="evenodd" clip-rule="evenodd" d="M10.7585 28.8621C10.4252 28.8621 10.155 29.1322 10.155 29.4655V33.0862C10.155 33.4195 10.4252 33.6896 10.7585 33.6896C11.0918 33.6896 11.3619 33.4195 11.3619 33.0862V29.4655C11.3619 29.1322 11.0918 28.8621 10.7585 28.8621Z" fill="#DF4D60"/>
<path fill-rule="evenodd" clip-rule="evenodd" d="M18.6034 24.6379H13.7758C13.4425 24.6379 13.1724 24.9081 13.1724 25.2414C13.1724 25.5746 13.4425 25.8448 13.7758 25.8448H18.6034C18.9367 25.8448 19.2068 25.5746 19.2068 25.2414C19.2068 24.9081 18.9367 24.6379 18.6034 24.6379Z" fill="#DF4D60"/>
<path fill-rule="evenodd" clip-rule="evenodd" d="M8.34479 25.2414C8.34479 24.9081 8.07461 24.6379 7.74134 24.6379H2.91375C2.58048 24.6379 2.3103 24.9081 2.3103 25.2414C2.3103 25.5746 2.58048 25.8448 2.91375 25.8448H7.74134C8.07461 25.8448 8.34479 25.5746 8.34479 25.2414Z" fill="#DF4D60"/>
<path fill-rule="evenodd" clip-rule="evenodd" d="M12.569 20.7155C12.5689 20.8821 12.5404 21.0474 12.4845 21.2043C11.9689 21.4056 11.5268 21.7592 11.2173 22.2181C11.1815 22.2723 11.1493 22.3288 11.1207 22.3871C11.0966 22.3328 11.0664 22.2785 11.0362 22.2241C10.7225 21.6805 10.2097 21.2801 9.60607 21.1078C9.56988 20.9802 9.5516 20.8482 9.55176 20.7155C9.55176 20.6552 9.55779 20.5888 9.56383 20.5285C9.56343 20.5181 9.56549 20.5077 9.56986 20.4983C9.5755 20.4408 9.58765 20.3841 9.60607 20.3293C9.7849 19.6505 10.4093 19.1854 11.1109 19.2085C11.8126 19.2316 12.405 19.7367 12.5388 20.4259C12.5584 20.5212 12.5686 20.6182 12.569 20.7155Z" fill="#FB7B76"/>
<path fill-rule="evenodd" clip-rule="evenodd" d="M12.569 20.7155C12.5689 20.8821 12.5404 21.0474 12.4845 21.2043C11.9689 21.4056 11.5268 21.7592 11.2173 22.2181C11.1815 22.2723 11.1493 22.3288 11.1207 22.3871C11.0966 22.3327 11.0664 22.2784 11.0362 22.2241C10.7225 21.6804 10.2097 21.2801 9.60607 21.1077C9.56988 20.9801 9.5516 20.8481 9.55176 20.7155C9.55176 20.6552 9.55779 20.5888 9.56383 20.5284C9.56343 20.518 9.56549 20.5077 9.56986 20.4983C9.57552 20.4447 9.58768 20.392 9.60607 20.3414C10.2097 20.5137 10.7225 20.9141 11.0362 21.4577C11.0664 21.5121 11.0966 21.5664 11.1207 21.6207C11.1493 21.5624 11.1815 21.5059 11.2173 21.4517C11.5391 20.9795 12.0015 20.6205 12.5388 20.4259C12.5584 20.5212 12.5686 20.6182 12.569 20.7155Z" fill="#DF4D60"/>
<path fill-rule="evenodd" clip-rule="evenodd" d="M10.7586 23.7327C10.7576 24.0452 10.8107 24.3556 10.9155 24.65C10.8638 24.64 10.8112 24.6359 10.7586 24.6379C10.1041 24.6398 9.50077 24.9921 9.17754 25.5612C8.78973 24.9814 8.1371 24.6347 7.43961 24.6379C7.25809 24.637 7.07733 24.6614 6.90254 24.7103C6.6608 24.3275 6.53312 23.8838 6.53443 23.431C6.53443 22.0979 7.61513 21.0172 8.94823 21.0172C9.17064 21.0164 9.39206 21.0469 9.60599 21.1077C10.2096 21.2801 10.7225 21.6804 11.0362 22.2241C11.0663 22.2784 11.0965 22.3327 11.1206 22.3871C10.8803 22.7945 10.7552 23.2597 10.7586 23.7327Z" fill="#FB7B76"/>
<path fill-rule="evenodd" clip-rule="evenodd" d="M9.36473 27.6009C9.34567 27.6573 9.32142 27.7118 9.29231 27.7638C9.11998 28.0877 8.86089 28.3573 8.54404 28.5422C8.5153 28.5644 8.48505 28.5846 8.45352 28.6026C7.73734 29.0001 6.8559 28.9477 6.19189 28.4681C5.52788 27.9885 5.20105 27.1682 5.35328 26.3634C5.50551 25.5585 6.10936 24.9143 6.90266 24.7103C7.07745 24.6614 7.25821 24.637 7.43973 24.6379C8.13722 24.6347 8.78985 24.9815 9.17766 25.5612C8.81366 26.2147 8.88794 27.0245 9.36473 27.6009Z" fill="#FB7B76"/>
<path fill-rule="evenodd" clip-rule="evenodd" d="M12.0198 29.4836C11.9914 29.9694 11.7697 30.4235 11.4043 30.7448C11.2185 30.9132 10.9981 31.0388 10.7586 31.1129C10.5747 31.1786 10.3806 31.2113 10.1853 31.2095C9.69715 31.2096 9.22891 31.0158 8.88371 30.6706C8.53851 30.3254 8.34465 29.8571 8.34481 29.369C8.34194 29.0812 8.41035 28.7972 8.54395 28.5422C8.8608 28.3572 9.1199 28.0877 9.29223 27.7638C9.32134 27.7118 9.34558 27.6573 9.36464 27.6009C9.39481 27.6371 9.42499 27.6733 9.46119 27.7095C9.80138 28.0608 10.2696 28.259 10.7586 28.2586C10.8537 28.2598 10.9487 28.2518 11.0422 28.2345C11.1556 28.2185 11.2669 28.1901 11.3741 28.15C11.4181 28.6588 11.648 29.1335 12.0198 29.4836Z" fill="#FB7B76"/>
<path fill-rule="evenodd" clip-rule="evenodd" d="M11.3621 27.9569C11.3601 28.0215 11.3641 28.0861 11.3742 28.15C11.2669 28.1901 11.1556 28.2184 11.0423 28.2345C10.9487 28.2517 10.8537 28.2598 10.7586 28.2586C10.2696 28.2589 9.80141 28.0608 9.46122 27.7095C9.42501 27.6733 9.39484 27.6371 9.36467 27.6008C8.88788 27.0245 8.81361 26.2146 9.1776 25.5612C9.50083 24.9921 10.1042 24.6398 10.7586 24.6379C10.8112 24.6359 10.8639 24.64 10.9155 24.65C11.7082 24.7146 12.3652 25.2906 12.5328 26.0681C11.8161 26.4249 11.3628 27.1563 11.3621 27.9569Z" fill="#FB7B76"/>
<path fill-rule="evenodd" clip-rule="evenodd" d="M15.5862 27.9569C15.5876 28.802 15.0844 29.5662 14.3075 29.8988C13.5307 30.2314 12.6303 30.068 12.0198 29.4836C11.648 29.1335 11.4182 28.6588 11.3741 28.15C11.3641 28.0862 11.3601 28.0215 11.3621 27.9569C11.3628 27.1563 11.8161 26.4249 12.5328 26.0681C12.8244 25.9201 13.1471 25.8435 13.4741 25.8448C14.6398 25.8468 15.5842 26.7913 15.5862 27.9569Z" fill="#FB7B76"/>
<path fill-rule="evenodd" clip-rule="evenodd" d="M12.0198 29.4836C11.9914 29.9694 11.7697 30.4235 11.4043 30.7448C11.2186 30.9132 10.9982 31.0388 10.7586 31.1129C10.5747 31.1786 10.3806 31.2113 10.1854 31.2095C9.69718 31.2096 9.22894 31.0158 8.88374 30.6706C8.53854 30.3254 8.34468 29.8571 8.34484 29.369C8.3425 29.1736 8.37521 28.9795 8.4414 28.7957C8.68212 29.5555 9.3883 30.0711 10.1854 30.069C10.3806 30.0708 10.5747 30.0381 10.7586 29.9724C10.9982 29.8983 11.2186 29.7727 11.4043 29.6043C11.5436 29.4822 11.6636 29.3398 11.7604 29.1819C11.8352 29.292 11.9222 29.3932 12.0198 29.4836Z" fill="#DF4D60"/>
<path fill-rule="evenodd" clip-rule="evenodd" d="M16.1896 23.7328C16.1939 24.7869 15.5799 25.7456 14.6207 26.1828C14.2786 25.963 13.8807 25.8457 13.4741 25.8448C13.1471 25.8435 12.8244 25.92 12.5328 26.0681C12.3651 25.2906 11.7082 24.7146 10.9155 24.65C10.8107 24.3556 10.7577 24.0453 10.7586 23.7328C10.7552 23.2597 10.8803 22.7946 11.1207 22.3871C11.1493 22.3288 11.1815 22.2723 11.2172 22.2181C11.8827 21.2236 13.1207 20.7818 14.2654 21.1305C15.4101 21.4792 16.1917 22.5361 16.1896 23.7328Z" fill="#FB7B76"/>
<path fill-rule="evenodd" clip-rule="evenodd" d="M16.1896 23.7327C16.1939 24.7869 15.5799 25.7456 14.6206 26.1828C14.2786 25.963 13.8807 25.8457 13.4741 25.8448C13.147 25.8435 12.8243 25.92 12.5327 26.0681C12.3651 25.2906 11.7082 24.7146 10.9155 24.65C10.8638 24.64 10.8112 24.6359 10.7586 24.6379C10.1041 24.6398 9.50077 24.9921 9.17754 25.5612C8.78973 24.9814 8.1371 24.6347 7.43961 24.6379C7.25809 24.637 7.07733 24.6614 6.90254 24.7103C6.6608 24.3275 6.53312 23.8838 6.53443 23.431C6.53625 23.2753 6.55038 23.1199 6.57668 22.9664C6.63441 23.2575 6.74484 23.5356 6.90254 23.7871C7.07733 23.7381 7.25809 23.7138 7.43961 23.7146C8.1371 23.7115 8.78973 24.0582 9.17754 24.6379C9.50077 24.0688 10.1041 23.7165 10.7586 23.7146C11.6097 23.706 12.3502 24.2954 12.5327 25.1267C12.8243 24.9787 13.147 24.9021 13.4741 24.9034C13.8807 24.9043 14.2786 25.0216 14.6206 25.2414C15.4274 24.8738 15.9993 24.1301 16.1474 23.256C16.1766 23.4132 16.1908 23.5729 16.1896 23.7327Z" fill="#DF4D60"/>
<path fill-rule="evenodd" clip-rule="evenodd" d="M15.4956 27.3535C15.2278 28.2468 14.4067 28.8596 13.4741 28.8621C12.9318 28.8626 12.4105 28.6527 12.0197 28.2767C11.9105 28.1734 11.8133 28.058 11.7301 27.9328C11.6324 27.7958 11.5552 27.6454 11.5008 27.4862C11.2691 27.5972 11.0155 27.655 10.7585 27.6552C10.2695 27.6555 9.80131 27.4573 9.46112 27.106C9.42492 27.0698 9.39474 27.0336 9.36457 26.9974C9.15995 26.7571 9.02623 26.4646 8.97837 26.1526C8.9561 26.2495 8.94596 26.3488 8.94819 26.4483C8.94795 26.7595 9.02886 27.0655 9.18293 27.336C9.01964 27.584 8.80085 27.7906 8.54388 27.9394C8.51514 27.9616 8.4849 27.9817 8.45337 27.9997C7.84574 28.3329 7.11323 28.3461 6.49392 28.0353C5.87462 27.7244 5.44759 27.1291 5.35164 26.4428C5.33442 26.5443 5.32634 26.6471 5.3275 26.75C5.3276 27.4959 5.72109 28.1864 6.36274 28.5667C7.00439 28.947 7.79903 28.9606 8.45337 28.6026C8.4849 28.5846 8.51514 28.5644 8.54388 28.5422C8.86073 28.3573 9.11983 28.0877 9.29216 27.7638C9.32127 27.7118 9.34551 27.6573 9.36457 27.6009C9.39474 27.6371 9.42492 27.6733 9.46112 27.7095C9.80131 28.0608 10.2695 28.259 10.7585 28.2586C10.8536 28.2598 10.9486 28.2518 11.0422 28.2345C11.1555 28.2185 11.2668 28.1901 11.3741 28.15C11.4754 29.235 12.3843 30.0656 13.4741 30.069C14.6405 30.069 15.5861 29.1234 15.5861 27.9569C15.5874 27.7523 15.5569 27.5487 15.4956 27.3535Z" fill="#DF4D60"/>
</g>
<defs>
<clipPath id="clip0_103_187">
<rect width="35" height="35" fill="white" transform="translate(0.5 0.5)"/>
</clipPath>
</defs>
</svg>
