<svg width="36" height="36" viewBox="0 0 36 36" fill="none" xmlns="http://www.w3.org/2000/svg">
<g clip-path="url(#clip0_99_161)">
<path fill-rule="evenodd" clip-rule="evenodd" d="M18 11.7664C18.0025 13.4605 17.4982 15.1165 16.5517 16.5216C14.4175 19.7119 10.4559 21.1428 6.77552 20.0525C3.09518 18.9622 0.552155 15.6045 0.500003 11.7664C0.498545 9.94769 1.07782 8.17602 2.15345 6.70949C3.25425 5.21853 3.94314 3.46405 4.15087 1.62242C4.21156 1.00413 4.73046 0.532165 5.35173 0.530182H30.6483C31.2695 0.532165 31.7884 1.00413 31.8491 1.62242C32.0569 3.46405 32.7458 5.21853 33.8466 6.70949C34.9222 8.17602 35.5015 9.94769 35.5 11.7664C35.4478 15.6045 32.9048 18.9622 29.2245 20.0525C25.5442 21.1428 21.5825 19.7119 19.4483 16.5216C18.5018 15.1165 17.9975 13.4605 18 11.7664Z" fill="#FDD7AD"/>
<path d="M9.25005 16.1897C11.4163 16.1897 13.1725 14.4336 13.1725 12.2673C13.1725 10.101 11.4163 8.34485 9.25005 8.34485C7.08376 8.34485 5.32764 10.101 5.32764 12.2673C5.32764 14.4336 7.08376 16.1897 9.25005 16.1897Z" fill="#F9C795"/>
<path d="M9.25008 13.7759C10.0833 13.7759 10.7587 13.1004 10.7587 12.2673C10.7587 11.4341 10.0833 10.7586 9.25008 10.7586C8.41689 10.7586 7.74146 11.4341 7.74146 12.2673C7.74146 13.1004 8.41689 13.7759 9.25008 13.7759Z" fill="#F09372"/>
<path fill-rule="evenodd" clip-rule="evenodd" d="M21.1639 23.5089C20.9521 23.5088 20.7559 23.3978 20.6468 23.2163C20.5377 23.0348 20.5317 22.8094 20.631 22.6224L24.8401 14.6997C24.9964 14.4053 25.3618 14.2933 25.6562 14.4496C25.9507 14.6059 26.0627 14.9713 25.9064 15.2658L21.6973 23.1897C21.5922 23.3865 21.387 23.5093 21.1639 23.5089Z" fill="#3F5C6C"/>
<path d="M28.2586 13.1724C29.2584 13.1724 30.0689 12.3619 30.0689 11.3621C30.0689 10.3622 29.2584 9.55173 28.2586 9.55173C27.2588 9.55173 26.4482 10.3622 26.4482 11.3621C26.4482 12.3619 27.2588 13.1724 28.2586 13.1724Z" fill="#F29C1F"/>
<path d="M30.6725 10.7586C31.339 10.7586 31.8794 10.2183 31.8794 9.55175C31.8794 8.88519 31.339 8.34485 30.6725 8.34485C30.0059 8.34485 29.4656 8.88519 29.4656 9.55175C29.4656 10.2183 30.0059 10.7586 30.6725 10.7586Z" fill="#E57E25"/>
<path d="M31.5775 13.7759C32.4107 13.7759 33.0861 13.1004 33.0861 12.2673C33.0861 11.4341 32.4107 10.7586 31.5775 10.7586C30.7443 10.7586 30.0688 11.4341 30.0688 12.2673C30.0688 13.1004 30.7443 13.7759 31.5775 13.7759Z" fill="#F29C1F"/>
<path fill-rule="evenodd" clip-rule="evenodd" d="M20.1424 8.27242C19.1394 9.63421 18.6 11.282 18.6036 12.9733C18.6011 14.2062 18.8906 15.4221 19.4484 16.5216C18.502 15.1165 17.9976 13.4604 18.0001 11.7664C18.0027 13.4604 17.4983 15.1165 16.5518 16.5216C17.1097 15.4221 17.3992 14.2062 17.3967 12.9733C17.4003 11.282 16.8609 9.63421 15.8579 8.27242C15.7631 8.1429 15.7239 7.98096 15.7488 7.82243C15.7737 7.66389 15.8607 7.5218 15.9906 7.42759C16.2617 7.23572 16.6363 7.29458 16.8355 7.56035C16.9255 7.6778 17.0081 7.80074 17.0829 7.92845C17.4548 8.48746 17.7625 9.08666 18.0001 9.71466C18.2377 9.08666 18.5454 8.48746 18.9174 7.92845C18.9921 7.80074 19.0748 7.6778 19.1648 7.56035C19.3639 7.29458 19.7385 7.23572 20.0096 7.42759C20.1395 7.5218 20.2266 7.66389 20.2515 7.82243C20.2764 7.98096 20.2371 8.1429 20.1424 8.27242Z" fill="#F9C795"/>
<path d="M17.9999 35.5C21.9992 35.5 25.2413 32.2579 25.2413 28.2586C25.2413 24.2593 21.9992 21.0172 17.9999 21.0172C14.0006 21.0172 10.7585 24.2593 10.7585 28.2586C10.7585 32.2579 14.0006 35.5 17.9999 35.5Z" fill="#3B97D3"/>
<path fill-rule="evenodd" clip-rule="evenodd" d="M18.0001 31.2759C17.6668 31.2759 17.3966 31.0057 17.3966 30.6724V29.7673C17.3907 28.9153 17.9506 28.1628 18.7683 27.9237C19.6804 27.7352 20.3541 26.9602 20.4139 26.0307C20.4139 24.93 19.3313 24.0345 18.0001 24.0345C16.6689 24.0345 15.5863 24.93 15.5863 26.0307C15.5863 26.364 15.3161 26.6342 14.9828 26.6342C14.6496 26.6342 14.3794 26.364 14.3794 26.0307C14.3794 24.2644 16.0033 22.8276 18.0001 22.8276C19.9969 22.8276 21.6208 24.2644 21.6208 26.0307C21.5659 27.5032 20.5297 28.7557 19.0935 29.0854C18.7961 29.1776 18.596 29.456 18.6035 29.7673V30.6724C18.6035 31.0057 18.3334 31.2759 18.0001 31.2759Z" fill="white"/>
<path d="M18.0002 33.6897C18.3335 33.6897 18.6036 33.4195 18.6036 33.0862C18.6036 32.753 18.3335 32.4828 18.0002 32.4828C17.6669 32.4828 17.3967 32.753 17.3967 33.0862C17.3967 33.4195 17.6669 33.6897 18.0002 33.6897Z" fill="white"/>
</g>
<defs>
<clipPath id="clip0_99_161">
<rect width="35" height="35" fill="white" transform="translate(0.5 0.5)"/>
</clipPath>
</defs>
</svg>
