<svg width="36" height="36" viewBox="0 0 36 36" fill="none" xmlns="http://www.w3.org/2000/svg">
<path fill-rule="evenodd" clip-rule="evenodd" d="M2.26218 23.5215C1.3555 22.9838 0.731025 22.0746 0.55442 21.0353C0.409871 20.1996 0.561391 19.3395 0.982869 18.6034C1.31473 18.0435 1.31473 17.3471 0.982869 16.7871C0.339245 15.6703 0.339245 14.2952 0.982869 13.1784C1.30879 12.6147 1.30879 11.9198 0.982869 11.356C0.0274357 9.69696 0.530036 7.58075 2.12942 6.52845C2.74953 6.12797 3.07398 5.39855 2.95614 4.66983C2.8754 4.12485 2.91453 3.56881 3.0708 3.04051C3.45129 1.79127 4.48342 0.849388 5.76218 0.58448C6.74175 0.370046 7.76638 0.571041 8.59235 1.13965C9.17729 1.54025 9.94951 1.53544 10.5294 1.12758C11.1301 0.716648 11.8413 0.497797 12.5691 0.499998C13.3464 0.49749 14.1031 0.749724 14.7234 1.2181C15.2548 1.60501 15.9531 1.67645 16.5518 1.40517C17.4754 1.00287 18.5248 1.00287 19.4484 1.40517C20.0471 1.67645 20.7454 1.60501 21.2768 1.2181C21.8972 0.749724 22.6539 0.49749 23.4311 0.499998C24.156 0.49859 24.8645 0.715147 25.4648 1.12155C26.0566 1.52162 26.8317 1.524 27.426 1.12758C28.3985 0.465304 29.632 0.316186 30.7344 0.727622C31.8367 1.13906 32.6709 2.05987 32.9717 3.19741C33.0939 3.67845 33.1185 4.17911 33.0441 4.66983C32.9262 5.39855 33.2507 6.12797 33.8708 6.52845C34.8877 7.19813 35.4999 8.33411 35.5001 9.55172C35.502 10.1953 35.3288 10.8273 34.9992 11.3802C34.3354 12.5086 35.0837 13.0397 35.3553 13.981C35.6169 14.8728 35.5217 15.8314 35.0898 16.6543C34.8708 17.0908 34.8069 17.5888 34.9087 18.0664C35.1415 18.8067 35.2972 19.5691 35.3734 20.3414C35.368 20.6484 35.3192 20.9531 35.2286 21.2465C34.5829 23.2198 32.0001 23.9379 30.2501 23.0448C29.5991 22.6866 28.8131 22.673 28.1501 23.0086C27.5771 23.3291 26.9217 23.472 26.2673 23.419C25.8099 23.3201 25.3462 23.2536 24.8794 23.2198C24.4638 23.2331 24.0603 23.3627 23.7148 23.594C23.3916 23.7952 23.0921 24.032 22.8217 24.3C22.4632 24.6346 22.249 25.0956 22.2242 25.5853V30.6724C22.2223 31.3381 21.6831 31.8773 21.0173 31.8793H19.8105C19.1447 31.8773 18.6055 31.3381 18.6036 30.6724V25.531C18.5956 25.07 18.3861 24.6356 18.0303 24.3422C16.7792 23.2457 16.4364 21.4377 17.1992 19.9593C17.962 18.4809 19.634 17.7125 21.2527 18.0965C22.1449 18.3425 23.1 18.0782 23.7389 17.4086C24.4258 16.633 25.4123 16.1892 26.4484 16.1897C27.511 16.1979 28.521 16.6535 29.2303 17.4448C28.3699 16.5156 28.0566 15.2049 28.4036 13.9871C28.663 13.0698 29.4173 12.5026 28.7536 11.3741C28.4286 10.8218 28.2578 10.1925 28.2587 9.55172C28.2586 9.38411 28.2707 9.21671 28.2949 9.05086C28.3858 8.30616 28.0645 7.57096 27.4561 7.13189C26.8772 6.69561 26.0835 6.681 25.4889 7.09569C24.4592 7.81119 23.132 7.94139 21.9829 7.43965C21.3841 7.16837 20.6858 7.23982 20.1544 7.62672C18.8778 8.58419 17.1224 8.58419 15.8458 7.62672C15.3144 7.23982 14.6161 7.16837 14.0174 7.43965C12.8753 7.93837 11.5569 7.81291 10.5294 7.10776C10.0054 6.72223 9.30396 6.67972 8.73718 6.99914C8.01323 7.41455 7.60714 8.22198 7.70528 9.05086C7.72956 9.21671 7.74166 9.38411 7.74149 9.55172C7.74334 10.1953 7.57021 10.8273 7.24063 11.3802C6.92082 11.9283 6.92082 12.6062 7.24063 13.1543C7.9084 14.2818 7.9084 15.6837 7.24063 16.8112C6.92082 17.3593 6.92082 18.0372 7.24063 18.5853C7.57021 19.1382 7.74334 19.7702 7.74149 20.4138C7.74192 20.6162 7.72374 20.8182 7.68718 21.0172L2.26218 23.5215Z" fill="#DF4D60"/>
<path d="M12.569 5.32758C13.2355 5.32758 13.7759 4.78724 13.7759 4.12068C13.7759 3.45413 13.2355 2.91379 12.569 2.91379C11.9024 2.91379 11.3621 3.45413 11.3621 4.12068C11.3621 4.78724 11.9024 5.32758 12.569 5.32758Z" fill="#FFCD00"/>
<path d="M4.12071 16.1896C4.78727 16.1896 5.32761 15.6493 5.32761 14.9827C5.32761 14.3162 4.78727 13.7758 4.12071 13.7758C3.45416 13.7758 2.91382 14.3162 2.91382 14.9827C2.91382 15.6493 3.45416 16.1896 4.12071 16.1896Z" fill="#FFCD00"/>
<path d="M29.4654 5.32758C30.132 5.32758 30.6723 4.78724 30.6723 4.12068C30.6723 3.45413 30.132 2.91379 29.4654 2.91379C28.7989 2.91379 28.2585 3.45413 28.2585 4.12068C28.2585 4.78724 28.7989 5.32758 29.4654 5.32758Z" fill="#FFCD00"/>
<path d="M20.4139 22.8276C21.0805 22.8276 21.6208 22.2872 21.6208 21.6207C21.6208 20.9541 21.0805 20.4138 20.4139 20.4138C19.7474 20.4138 19.207 20.9541 19.207 21.6207C19.207 22.2872 19.7474 22.8276 20.4139 22.8276Z" fill="#FFCD00"/>
<path d="M16.7931 5.93103C17.1264 5.93103 17.3966 5.66086 17.3966 5.32758C17.3966 4.99431 17.1264 4.72414 16.7931 4.72414C16.4599 4.72414 16.1897 4.99431 16.1897 5.32758C16.1897 5.66086 16.4599 5.93103 16.7931 5.93103Z" fill="#FFCD00"/>
<path d="M3.51727 11.9655C3.85054 11.9655 4.12071 11.6953 4.12071 11.3621C4.12071 11.0288 3.85054 10.7586 3.51727 10.7586C3.18399 10.7586 2.91382 11.0288 2.91382 11.3621C2.91382 11.6953 3.18399 11.9655 3.51727 11.9655Z" fill="#FFCD00"/>
<path d="M5.32757 10.7586C5.66084 10.7586 5.93102 10.4884 5.93102 10.1552C5.93102 9.82189 5.66084 9.55171 5.32757 9.55171C4.99429 9.55171 4.72412 9.82189 4.72412 10.1552C4.72412 10.4884 4.99429 10.7586 5.32757 10.7586Z" fill="#FFCD00"/>
<path d="M31.2758 7.74138C31.6091 7.74138 31.8793 7.47121 31.8793 7.13793C31.8793 6.80466 31.6091 6.53448 31.2758 6.53448C30.9425 6.53448 30.6724 6.80466 30.6724 7.13793C30.6724 7.47121 30.9425 7.74138 31.2758 7.74138Z" fill="#FFCD00"/>
<path d="M23.4311 20.4138C23.7644 20.4138 24.0345 20.1436 24.0345 19.8103C24.0345 19.4771 23.7644 19.2069 23.4311 19.2069C23.0978 19.2069 22.8276 19.4771 22.8276 19.8103C22.8276 20.1436 23.0978 20.4138 23.4311 20.4138Z" fill="#FFCD00"/>
<path d="M25.8449 4.12068C26.1782 4.12068 26.4484 3.85051 26.4484 3.51724C26.4484 3.18396 26.1782 2.91379 25.8449 2.91379C25.5116 2.91379 25.2415 3.18396 25.2415 3.51724C25.2415 3.85051 25.5116 4.12068 25.8449 4.12068Z" fill="#FFCD00"/>
<path d="M15.5861 4.12068C15.9194 4.12068 16.1896 3.85051 16.1896 3.51724C16.1896 3.18396 15.9194 2.91379 15.5861 2.91379C15.2528 2.91379 14.9827 3.18396 14.9827 3.51724C14.9827 3.85051 15.2528 4.12068 15.5861 4.12068Z" fill="#FFCD00"/>
<path fill-rule="evenodd" clip-rule="evenodd" d="M14.9828 28.2586C14.9826 32.2508 11.7515 35.4899 7.75935 35.4998C3.76715 35.5097 0.520016 32.2867 0.500092 28.2946C0.480168 24.3024 3.69497 21.0472 7.68707 21.0172H7.74138C11.7407 21.0172 14.9828 24.2593 14.9828 28.2586Z" fill="#3B97D3"/>
<path d="M7.74139 33.0862C8.07466 33.0862 8.34484 32.816 8.34484 32.4828C8.34484 32.1495 8.07466 31.8793 7.74139 31.8793C7.40811 31.8793 7.13794 32.1495 7.13794 32.4828C7.13794 32.816 7.40811 33.0862 7.74139 33.0862Z" fill="white"/>
<path fill-rule="evenodd" clip-rule="evenodd" d="M7.74139 30.6724C7.40811 30.6724 7.13794 30.4022 7.13794 30.069V23.431C7.13794 23.0978 7.40811 22.8276 7.74139 22.8276C8.07466 22.8276 8.34484 23.0978 8.34484 23.431V30.069C8.34484 30.4022 8.07466 30.6724 7.74139 30.6724Z" fill="white"/>
</svg>
