<svg width="36" height="37" viewBox="0 0 36 37" fill="none" xmlns="http://www.w3.org/2000/svg">
<path d="M8.75429 17.4242C8.75429 17.4242 16.1889 6.30878 23.4848 4.80669L20.8706 0C20.8706 0 9.34155 6.30878 7.57568 15.3213L8.75429 17.4242Z" fill="#7CBF83"/>
<path d="M18.9395 7.74989C18.9395 7.74989 29.6053 16.1836 30.3189 23.4848L35.6061 21.4246C35.6061 21.4246 30.3842 9.48484 21.2458 6.81818L18.9395 7.74989Z" fill="#749878"/>
<path d="M28.534 20.4545C28.534 20.4545 19.3183 30.6349 11.3635 31.3047L13.6007 36.3636C13.6007 36.3636 26.6252 31.4045 29.5453 22.672L28.534 20.4545Z" fill="#7CBF83"/>
<path d="M18.1818 27.5619C18.1818 27.5619 6.57091 20.2348 4.90668 12.8788L0 15.6115C0 15.6115 6.71712 27.1697 16.0402 28.7879L18.1818 27.5619Z" fill="#749878"/>
<path d="M17.8031 20.4546C19.2675 20.4546 20.4546 19.2674 20.4546 17.803C20.4546 16.3386 19.2675 15.1515 17.8031 15.1515C16.3387 15.1515 15.1516 16.3386 15.1516 17.803C15.1516 19.2674 16.3387 20.4546 17.8031 20.4546Z" fill="url(#paint0_radial_95_193)"/>
<defs>
<radialGradient id="paint0_radial_95_193" cx="0" cy="0" r="1" gradientUnits="userSpaceOnUse" gradientTransform="translate(17.514 17.6938) rotate(23.4986) scale(3.32809)">
<stop stop-color="#749878"/>
<stop offset="1" stop-color="#74B57A"/>
</radialGradient>
</defs>
</svg>
