<svg width="36" height="36" viewBox="0 0 36 36" fill="none" xmlns="http://www.w3.org/2000/svg">
<g clip-path="url(#clip0_99_86)">
<path fill-rule="evenodd" clip-rule="evenodd" d="M11.3923 17.5836C11.9053 6.35948 18.0001 4.07845 20.8122 3.62586C21.1337 3.57041 21.4641 3.64755 21.7278 3.83969C21.9916 4.03183 22.1663 4.3226 22.2122 4.64569H22.2242V19.2069C22.1773 21.4848 20.3558 23.3275 18.0785 23.4009H18.0725L11.3923 17.5836Z" fill="#FB7B76"/>
<path fill-rule="evenodd" clip-rule="evenodd" d="M24.638 7.15V4.64569C24.6839 4.3226 24.8586 4.03183 25.1224 3.83969C25.3861 3.64755 25.7165 3.57041 26.038 3.62586C28.9346 4.09052 35.307 6.49828 35.488 18.6034C35.5182 20.8302 35.4941 22.7491 35.4337 24.4086C35.416 24.8802 35.1251 25.2981 34.6891 25.4785C34.253 25.6589 33.7518 25.5686 33.4061 25.2474C32.3703 24.1575 30.9553 23.5073 29.4536 23.431C24.626 23.431 24.626 19.2069 24.626 19.2069V11.9716L24.638 7.15Z" fill="#FB7B76"/>
<path fill-rule="evenodd" clip-rule="evenodd" d="M31.5897 15.7129C31.3595 16.0134 31.0027 16.1896 30.6242 16.1897C30.3613 16.1892 30.1054 16.1046 29.894 15.9483L27.5345 14.1621H27.5285L24.6259 11.9716L24.6199 11.9655C24.169 11.6163 23.7689 11.2061 23.4311 10.7466C23.0933 11.2061 22.6932 11.6163 22.2423 11.9655L22.2242 11.9776L19.3337 14.1621H19.3276L16.9682 15.9483C16.7568 16.1046 16.5009 16.1892 16.238 16.1897C15.7185 16.1897 15.2573 15.8572 15.093 15.3644C14.9287 14.8716 15.0983 14.3289 15.5138 14.0172L16.775 13.0638L15.9363 12.2069C15.6344 11.9008 15.5189 11.4568 15.6331 11.0424C15.7473 10.6279 16.0739 10.3059 16.49 10.1976C16.906 10.0892 17.3482 10.2111 17.65 10.5172L18.7182 11.5974L20.7819 10.0345H20.788C21.6889 9.34836 22.2196 8.28242 22.2242 7.15V1.7069C22.2242 1.04035 22.7645 0.5 23.4311 0.5C24.0976 0.5 24.638 1.04035 24.638 1.7069V7.15C24.6425 8.28242 25.1733 9.34836 26.0742 10.0345H26.0802L28.144 11.5974L29.2121 10.5172C29.5139 10.2111 29.9562 10.0892 30.3722 10.1976C30.7882 10.3059 31.1149 10.6279 31.2291 11.0424C31.3433 11.4568 31.2277 11.9008 30.9259 12.2069L30.0871 13.0638L31.3483 14.0172C31.8826 14.4192 31.9906 15.1778 31.5897 15.7129Z" fill="#DF4D60"/>
<path fill-rule="evenodd" clip-rule="evenodd" d="M18.6034 26.4483C18.6034 31.4474 14.5509 35.5 9.55172 35.5C4.55259 35.5 0.5 31.4474 0.5 26.4483C0.5 21.4491 4.55259 17.3965 9.55172 17.3965C10.17 17.3969 10.7866 17.4596 11.3922 17.5836C14.48 18.2272 17.0105 20.4309 18.0724 23.4009H18.0784C18.4259 24.3793 18.6034 25.41 18.6034 26.4483Z" fill="#F0C419"/>
<path fill-rule="evenodd" clip-rule="evenodd" d="M9.55169 19.2069C9.21842 19.2069 8.94824 19.4771 8.94824 19.8103V22.2241C8.94824 22.5574 9.21842 22.8276 9.55169 22.8276C9.88497 22.8276 10.1551 22.5574 10.1551 22.2241V19.8103C10.1551 19.4771 9.88497 19.2069 9.55169 19.2069Z" fill="#DF4D60"/>
<path fill-rule="evenodd" clip-rule="evenodd" d="M12.694 24.7628L14.0258 23.431H14.9829C15.3162 23.431 15.5863 23.1609 15.5863 22.8276C15.5863 22.4943 15.3162 22.2241 14.9829 22.2241H14.3794V21.6207C14.3794 21.2874 14.1093 21.0172 13.776 21.0172C13.4427 21.0172 13.1725 21.2874 13.1725 21.6207V22.5778L11.8407 23.9096C11.6839 24.0611 11.621 24.2854 11.6762 24.4964C11.7314 24.7074 11.8962 24.8722 12.1072 24.9274C12.3181 24.9826 12.5425 24.9197 12.694 24.7628Z" fill="#DF4D60"/>
<path fill-rule="evenodd" clip-rule="evenodd" d="M5.93113 22.5778V21.6207C5.93113 21.2874 5.66095 21.0172 5.32768 21.0172C4.9944 21.0172 4.72423 21.2874 4.72423 21.6207V22.2241H4.12078C3.78751 22.2241 3.51733 22.4943 3.51733 22.8276C3.51733 23.1609 3.78751 23.431 4.12078 23.431H5.07785L6.35958 24.7128C6.59537 24.9484 6.97753 24.9483 7.21315 24.7125C7.44878 24.4767 7.44864 24.0945 7.21285 23.8589L5.93113 22.5778Z" fill="#DF4D60"/>
<path fill-rule="evenodd" clip-rule="evenodd" d="M14.9829 29.4655H14.0258L12.904 28.3437C12.6672 28.115 12.2909 28.1183 12.0581 28.3511C11.8253 28.5838 11.8221 28.9602 12.0507 29.197L13.1726 30.3188V31.2759C13.1726 31.6091 13.4427 31.8793 13.776 31.8793C14.1093 31.8793 14.3794 31.6091 14.3794 31.2759V30.6724H14.9829C15.3162 30.6724 15.5863 30.4022 15.5863 30.069C15.5863 29.7357 15.3162 29.4655 14.9829 29.4655Z" fill="#DF4D60"/>
<path fill-rule="evenodd" clip-rule="evenodd" d="M6.1194 28.4234L5.07785 29.4655H4.12078C3.78751 29.4655 3.51733 29.7357 3.51733 30.069C3.51733 30.4022 3.78751 30.6724 4.12078 30.6724H4.72423V31.2759C4.72423 31.6091 4.9944 31.8793 5.32768 31.8793C5.66095 31.8793 5.93113 31.6091 5.93113 31.2759V30.3188L6.97328 29.2766C7.12571 29.1241 7.18518 28.9018 7.12929 28.6936C7.07341 28.4853 6.91066 28.3227 6.70235 28.2669C6.49405 28.2112 6.27183 28.2708 6.1194 28.4234Z" fill="#DF4D60"/>
<path fill-rule="evenodd" clip-rule="evenodd" d="M9.55169 30.0189C9.21842 30.0189 8.94824 30.2891 8.94824 30.6223V33.0862C8.94824 33.4195 9.21842 33.6897 9.55169 33.6897C9.88497 33.6897 10.1551 33.4195 10.1551 33.0862V30.6223C10.1551 30.2891 9.88497 30.0189 9.55169 30.0189Z" fill="#DF4D60"/>
<path fill-rule="evenodd" clip-rule="evenodd" d="M15.5863 25.8448H12.569C12.2357 25.8448 11.9656 26.115 11.9656 26.4483C11.9656 26.7815 12.2357 27.0517 12.569 27.0517H15.5863C15.9195 27.0517 16.1897 26.7815 16.1897 26.4483C16.1897 26.115 15.9195 25.8448 15.5863 25.8448Z" fill="#DF4D60"/>
<path fill-rule="evenodd" clip-rule="evenodd" d="M6.54658 25.8448H3.51727C3.18399 25.8448 2.91382 26.115 2.91382 26.4483C2.91382 26.7815 3.18399 27.0517 3.51727 27.0517H6.54658C6.87985 27.0517 7.15003 26.7815 7.15003 26.4483C7.15003 26.115 6.87985 25.8448 6.54658 25.8448Z" fill="#DF4D60"/>
<path fill-rule="evenodd" clip-rule="evenodd" d="M11.149 22.4547C11.1489 22.6016 11.1238 22.7475 11.0748 22.8861C10.6199 23.0637 10.2298 23.3757 9.95657 23.7804C9.92518 23.8284 9.89657 23.8782 9.87088 23.9295C9.84976 23.8818 9.82321 23.8341 9.79666 23.7859C9.51978 23.3063 9.06731 22.9531 8.53485 22.801C8.50278 22.6884 8.48653 22.5718 8.48657 22.4547C8.48657 22.4015 8.492 22.343 8.49743 22.2899C8.49702 22.2807 8.49889 22.2716 8.50287 22.2634C8.50768 22.2126 8.51841 22.1626 8.53485 22.1143C8.70049 21.4631 9.32655 21.0383 9.99286 21.1251C10.6592 21.2118 11.1556 21.7828 11.149 22.4547Z" fill="#FB7B76"/>
<path fill-rule="evenodd" clip-rule="evenodd" d="M11.149 22.4547C11.1489 22.6016 11.1238 22.7475 11.0748 22.8861C10.6199 23.0637 10.2298 23.3757 9.95657 23.7804C9.92518 23.8284 9.89657 23.8782 9.87088 23.9295C9.84976 23.8818 9.82321 23.8341 9.79666 23.7859C9.51978 23.3063 9.06731 22.9531 8.53485 22.801C8.50278 22.6884 8.48653 22.5718 8.48657 22.4547C8.48657 22.4015 8.492 22.343 8.49743 22.2899C8.49702 22.2807 8.49889 22.2716 8.50287 22.2634C8.50773 22.2159 8.51848 22.1693 8.53485 22.1246C9.06747 22.2767 9.52 22.6301 9.79666 23.11C9.82321 23.1577 9.84976 23.2053 9.87088 23.2536C9.89643 23.2023 9.92505 23.1525 9.95657 23.1046C10.2402 22.6876 10.6482 22.3709 11.1224 22.1994C11.1396 22.2834 11.1485 22.3689 11.149 22.4547Z" fill="#DF4D60"/>
<path fill-rule="evenodd" clip-rule="evenodd" d="M9.55185 25.1171C9.55088 25.3928 9.59763 25.6665 9.69004 25.9263C9.6445 25.9178 9.59816 25.9143 9.55185 25.916C8.97435 25.9177 8.44197 26.2286 8.15668 26.7307C7.81464 26.219 7.23876 25.9131 6.62332 25.916C6.46321 25.9152 6.30376 25.9367 6.14961 25.98C5.93649 25.6421 5.82389 25.2505 5.82496 24.8509C5.8248 24.2861 6.04911 23.7443 6.44852 23.3449C6.84792 22.9455 7.38968 22.7212 7.95453 22.7214C8.1508 22.7207 8.34621 22.7475 8.53504 22.801C9.0675 22.9531 9.51998 23.3063 9.79685 23.7859C9.82341 23.8341 9.84996 23.8818 9.87108 23.9295C9.65912 24.2891 9.54879 24.6996 9.55185 25.1171Z" fill="#FB7B76"/>
<path fill-rule="evenodd" clip-rule="evenodd" d="M8.322 28.5302C8.305 28.5799 8.28359 28.6279 8.25803 28.6738C8.1062 28.9597 7.87756 29.1975 7.59786 29.3605C7.57249 29.3804 7.54566 29.3984 7.5176 29.4142C6.88634 29.7602 6.1122 29.7114 5.52941 29.2888C4.94663 28.8663 4.65958 28.1457 4.79219 27.4381C4.9248 26.7306 5.45333 26.1628 6.14958 25.98C6.30373 25.9367 6.46318 25.9152 6.62329 25.916C7.23873 25.9131 7.81461 26.2191 8.15665 26.7307C7.83562 27.3073 7.90127 28.0218 8.322 28.5302Z" fill="#FB7B76"/>
<path fill-rule="evenodd" clip-rule="evenodd" d="M10.6645 30.1897C10.6395 30.6183 10.4439 31.019 10.1214 31.3024C9.95745 31.4508 9.76303 31.5616 9.55176 31.6271C9.38952 31.685 9.21833 31.7138 9.04607 31.7122C8.61535 31.7123 8.20221 31.5413 7.89764 31.2367C7.59307 30.9321 7.42203 30.519 7.42219 30.0883C7.41968 29.8343 7.48 29.5837 7.5978 29.3587C7.8775 29.1957 8.10614 28.9579 8.25797 28.672C8.28353 28.6261 8.30494 28.5781 8.32194 28.5284C8.34849 28.5603 8.37504 28.5923 8.40702 28.6243C8.70791 28.9341 9.12173 29.1083 9.55357 29.1071C9.63757 29.1081 9.72145 29.1009 9.80401 29.0853C9.904 29.0715 10.0022 29.0466 10.0967 29.0111C10.1348 29.4604 10.3369 29.8799 10.6645 30.1897Z" fill="#FB7B76"/>
<path fill-rule="evenodd" clip-rule="evenodd" d="M10.0841 28.8446C10.0823 28.9015 10.0859 28.9585 10.0949 29.0147C10.0004 29.0502 9.90226 29.0751 9.80227 29.089C9.71972 29.1045 9.63583 29.1118 9.55184 29.1107C9.11999 29.112 8.70617 28.9377 8.40529 28.6279C8.3733 28.596 8.34494 28.564 8.3202 28.532C7.89947 28.0236 7.83382 27.3091 8.15486 26.7325C8.44 26.2291 8.97331 25.9174 9.55184 25.916C9.59814 25.9143 9.64448 25.9178 9.69003 25.9263C10.3896 25.9832 10.9694 26.4916 11.1172 27.1778C10.4851 27.4931 10.0852 28.1382 10.0841 28.8446Z" fill="#FB7B76"/>
<path fill-rule="evenodd" clip-rule="evenodd" d="M13.8114 28.8446C13.8119 29.5899 13.3676 30.2636 12.6822 30.5565C11.9969 30.8494 11.2028 30.7051 10.6645 30.1897C10.3366 29.8806 10.1338 29.4618 10.0948 29.0129C10.0858 28.9567 10.0821 28.8997 10.0839 28.8428C10.0851 28.1364 10.485 27.4913 11.117 27.176C11.3744 27.0452 11.6593 26.9775 11.948 26.9787C12.9766 26.9807 13.8098 27.8142 13.8114 28.8428V28.8446Z" fill="#FB7B76"/>
<path fill-rule="evenodd" clip-rule="evenodd" d="M10.6645 30.1896C10.6395 30.6182 10.4439 31.019 10.1214 31.3024C9.95747 31.4508 9.76306 31.5616 9.55179 31.6271C9.38955 31.685 9.21836 31.7138 9.0461 31.7121C8.61537 31.7123 8.20224 31.5413 7.89767 31.2367C7.5931 30.9321 7.42206 30.519 7.42222 30.0883C7.42016 29.916 7.44898 29.7447 7.50731 29.5826C7.71961 30.2531 8.34275 30.7081 9.0461 30.7062C9.21825 30.7084 9.38944 30.6802 9.55179 30.6229C9.76323 30.5576 9.95772 30.4466 10.1214 30.2977C10.2444 30.1902 10.3505 30.0646 10.4358 29.9253C10.5018 30.0218 10.5786 30.1105 10.6645 30.1896Z" fill="#DF4D60"/>
<path fill-rule="evenodd" clip-rule="evenodd" d="M14.3438 25.1171C14.3477 26.0471 13.8059 26.8931 12.9595 27.2786C12.6576 27.085 12.3068 26.9815 11.9481 26.9805C11.6594 26.9794 11.3745 27.047 11.1172 27.1778C10.9694 26.4916 10.3896 25.9832 9.69001 25.9263C9.5976 25.6665 9.55085 25.3928 9.55182 25.1171C9.54876 24.6996 9.65909 24.2891 9.87104 23.9295C9.89673 23.8782 9.92534 23.8284 9.95673 23.7804C10.5451 22.9053 11.6363 22.5174 12.6451 22.8248C13.6538 23.1321 14.3433 24.0625 14.3438 25.1171Z" fill="#FB7B76"/>
<path fill-rule="evenodd" clip-rule="evenodd" d="M14.3438 25.1171C14.3477 26.0472 13.806 26.8931 12.9595 27.2786C12.6577 27.085 12.3068 26.9815 11.9481 26.9805C11.6594 26.9794 11.3746 27.047 11.1172 27.1778C10.9694 26.4916 10.3897 25.9832 9.69004 25.9263C9.6445 25.9178 9.59816 25.9143 9.55185 25.916C8.97435 25.9177 8.44197 26.2286 8.15668 26.7307C7.81464 26.219 7.23876 25.9131 6.62332 25.916C6.46321 25.9152 6.30376 25.9367 6.14961 25.98C5.93649 25.6421 5.82389 25.2505 5.82496 24.8509C5.82649 24.7136 5.8388 24.5766 5.86177 24.4412C5.91276 24.6981 6.01031 24.9435 6.14961 25.1653C6.30399 25.1236 6.4634 25.1033 6.62332 25.105C7.23876 25.1021 7.81464 25.408 8.15668 25.9197C8.44104 25.4161 8.97359 25.1038 9.55185 25.1014C10.3026 25.0938 10.9559 25.6136 11.1172 26.3469C11.3747 26.2165 11.6595 26.1491 11.9481 26.1502C12.3068 26.1509 12.6578 26.2543 12.9595 26.4483C13.6713 26.1249 14.176 25.4691 14.3064 24.6983C14.3325 24.8363 14.345 24.9766 14.3438 25.1171Z" fill="#DF4D60"/>
<path fill-rule="evenodd" clip-rule="evenodd" d="M13.7312 28.3117C13.4952 29.1 12.7708 29.6408 11.948 29.6429C11.4694 29.6435 11.0092 29.4584 10.6645 29.1264C10.568 29.036 10.4824 28.9347 10.4092 28.8247C10.3228 28.7039 10.2544 28.5711 10.2064 28.4306C10.002 28.5281 9.77821 28.5784 9.5517 28.5778C9.1198 28.5794 8.70587 28.4051 8.40514 28.0951C8.37316 28.0631 8.3448 28.0347 8.32006 27.9997C8.13972 27.7874 8.02171 27.5292 7.97911 27.2539C7.9596 27.3396 7.95068 27.4273 7.95256 27.5152C7.95176 27.7904 8.02335 28.0609 8.16014 28.2997C8.01589 28.5184 7.82272 28.7006 7.59592 28.8319C7.57055 28.8516 7.54372 28.8694 7.51566 28.885C6.97962 29.1791 6.33324 29.191 5.78677 28.9167C5.24029 28.6425 4.86353 28.1171 4.77902 27.5116C4.76399 27.6013 4.75692 27.6921 4.7579 27.7831C4.75793 28.4412 5.10505 29.0504 5.67114 29.386C6.23722 29.7216 6.93833 29.7337 7.51566 29.4179C7.54373 29.402 7.57055 29.384 7.59592 29.3641C7.87562 29.2012 8.10426 28.9633 8.25609 28.6774C8.28165 28.6315 8.30306 28.5835 8.32006 28.5338C8.34661 28.5658 8.37316 28.5978 8.40514 28.6297C8.70603 28.9395 9.11985 29.1138 9.5517 29.1125C9.63569 29.1136 9.71958 29.1063 9.80213 29.0908C9.90212 29.0769 10.0003 29.052 10.0948 29.0166C10.1843 29.974 10.9864 30.7069 11.948 30.7098C12.9767 30.7088 13.8104 29.8751 13.8114 28.8464C13.8129 28.6651 13.7858 28.4846 13.7312 28.3117Z" fill="#DF4D60"/>
</g>
<defs>
<clipPath id="clip0_99_86">
<rect width="35" height="35" fill="white" transform="translate(0.5 0.5)"/>
</clipPath>
</defs>
</svg>
