<svg width="36" height="36" viewBox="0 0 36 36" fill="none" xmlns="http://www.w3.org/2000/svg">
<g clip-path="url(#clip0_100_204)">
<path fill-rule="evenodd" clip-rule="evenodd" d="M35.5 16.4914V33.6897H0.5V16.4914C3.41466 16.4914 3.41466 17.256 6.32931 17.256C9.24397 17.256 9.24397 16.4914 12.1647 16.4914C15.0853 16.4914 15.0793 17.256 17.994 17.256C20.106 17.256 20.6914 16.8583 21.9586 16.6368L24.9216 16.5373C26.8043 16.6978 27.1603 17.256 29.6647 17.256C32.5793 17.256 32.5793 16.4914 35.5 16.4914Z" fill="#F09372"/>
<path fill-rule="evenodd" clip-rule="evenodd" d="M35.5 15.9362V18.3017C32.5793 18.3017 32.5793 18.9052 29.6647 18.9052C27.1603 18.9052 26.8043 18.4647 24.9216 18.3379L21.9586 18.4164C20.6582 18.7196 19.3291 18.8835 17.994 18.9052C15.0793 18.9052 15.0793 18.3017 12.1647 18.3017C9.25 18.3017 9.24397 18.9052 6.32931 18.9052C3.41466 18.9052 3.41466 18.3017 0.5 18.3017V15.9362C0.500609 15.5981 0.6423 15.2756 0.890905 15.0465C1.13951 14.8174 1.47247 14.7024 1.80948 14.7293C3.50517 14.8741 3.93362 15.2845 6.32931 15.2845C6.92832 15.2892 7.527 15.255 8.12155 15.1819L15.8879 15.1336C16.5842 15.245 17.2889 15.2954 17.994 15.2845C20.3052 15.2845 20.7879 14.9104 22.3267 14.7474L25.0603 14.7293C26.8224 14.8621 27.2267 15.2845 29.6647 15.2845C32.0664 15.2845 32.4888 14.8741 34.1905 14.7293C34.5275 14.7024 34.8605 14.8174 35.1091 15.0465C35.3577 15.2756 35.4994 15.5981 35.5 15.9362Z" fill="#F9C795"/>
<path fill-rule="evenodd" clip-rule="evenodd" d="M11.9655 25.2414C11.6322 25.2414 11.3621 24.9712 11.3621 24.6379V14.3793C11.3621 14.0461 11.6322 13.7759 11.9655 13.7759C12.2988 13.7759 12.569 14.0461 12.569 14.3793V24.6379C12.569 24.9712 12.2988 25.2414 11.9655 25.2414Z" fill="#285680"/>
<path fill-rule="evenodd" clip-rule="evenodd" d="M12.5689 24.6379C12.5681 25.5201 11.9316 26.2732 11.062 26.4211C10.1923 26.5689 9.34265 26.0683 9.05044 25.236C8.75823 24.4036 9.10852 23.4818 9.87976 23.0536C10.651 22.6254 11.6186 22.8154 12.1707 23.5034L12.2431 23.594C12.4538 23.9015 12.5673 24.2652 12.5689 24.6379Z" fill="#F3D55B"/>
<path fill-rule="evenodd" clip-rule="evenodd" d="M14.3794 22.8276C14.3774 23.4933 13.8382 24.0325 13.1725 24.0345C12.8122 24.0352 12.4707 23.8733 12.2432 23.5939L12.1708 23.5034C12.0356 23.3041 11.9641 23.0684 11.9656 22.8276C11.9656 22.161 12.5059 21.6207 13.1725 21.6207C13.839 21.6207 14.3794 22.161 14.3794 22.8276Z" fill="#F0C419"/>
<path d="M11.9654 28.8621C12.632 28.8621 13.1723 28.3218 13.1723 27.6552C13.1723 26.9886 12.632 26.4483 11.9654 26.4483C11.2989 26.4483 10.7585 26.9886 10.7585 27.6552C10.7585 28.3218 11.2989 28.8621 11.9654 28.8621Z" fill="#F0C419"/>
<path d="M14.0775 27.0517C14.9107 27.0517 15.5861 26.3763 15.5861 25.5431C15.5861 24.7099 14.9107 24.0345 14.0775 24.0345C13.2443 24.0345 12.5688 24.7099 12.5688 25.5431C12.5688 26.3763 13.2443 27.0517 14.0775 27.0517Z" fill="#F3D55B"/>
<path fill-rule="evenodd" clip-rule="evenodd" d="M33.6897 31.8793V24.0345C33.6897 23.7012 33.4195 23.431 33.0862 23.431C32.7529 23.431 32.4828 23.7012 32.4828 24.0345V31.8793H31.2759V26.4483C31.2759 26.115 31.0057 25.8448 30.6724 25.8448C30.3391 25.8448 30.069 26.115 30.069 26.4483V31.8793H28.8621V28.8621C28.8621 28.5288 28.5919 28.2586 28.2586 28.2586C27.9253 28.2586 27.6552 28.5288 27.6552 28.8621V31.8793H8.34483V28.8621C8.34483 28.5288 8.07465 28.2586 7.74138 28.2586C7.4081 28.2586 7.13793 28.5288 7.13793 28.8621V31.8793H5.93103V26.4483C5.93103 26.115 5.66086 25.8448 5.32759 25.8448C4.99431 25.8448 4.72414 26.115 4.72414 26.4483V31.8793H3.51724V24.0345C3.51724 23.7012 3.24707 23.431 2.91379 23.431C2.58052 23.431 2.31034 23.7012 2.31034 24.0345V31.8793H0.5V34.2931C0.501988 34.9588 1.04117 35.498 1.7069 35.5H34.2931C34.9588 35.498 35.498 34.9588 35.5 34.2931V31.8793H33.6897Z" fill="#F0785A"/>
<path fill-rule="evenodd" clip-rule="evenodd" d="M28.9013 2.92885C28.733 2.73566 28.4926 2.62034 28.2365 2.61006C27.9805 2.59979 27.7316 2.69546 27.5484 2.87454C26.6755 3.78194 25.9174 4.79304 25.2909 5.88515C22.7745 10.1877 22.1692 14.8693 21.9001 19.4543C21.8782 19.9867 21.6685 20.4943 21.3081 20.8869C20.56 21.6968 20.0587 22.7037 19.8635 23.7889C19.6689 24.7937 19.891 25.8345 20.4787 26.6725C21.0664 27.5105 21.9692 28.0738 22.9803 28.2332C24.0091 28.358 25.042 28.0358 25.8176 27.3484C26.5931 26.661 27.0369 25.6742 27.0366 24.6379C27.0168 23.2465 26.4789 21.9125 25.528 20.8965C25.1496 20.4821 24.9351 19.9441 24.9246 19.3831C24.8992 14.9514 25.181 10.8503 27.1447 6.89834C27.6164 5.92351 28.204 5.00913 28.8947 4.17497C29.2106 3.82061 29.2134 3.28656 28.9013 2.92885Z" fill="#A56A43"/>
<path d="M11.9654 16.1897C16.298 16.1897 19.8103 12.6774 19.8103 8.34483C19.8103 4.01225 16.298 0.5 11.9654 0.5C7.63285 0.5 4.12061 4.01225 4.12061 8.34483C4.12061 12.6774 7.63285 16.1897 11.9654 16.1897Z" fill="#3B97D3"/>
<path fill-rule="evenodd" clip-rule="evenodd" d="M11.9654 11.3621C11.6321 11.3621 11.362 11.0919 11.362 10.7586V9.85347C11.3564 9.00169 11.9162 8.24941 12.7336 8.00994C13.6458 7.82138 14.3194 7.04645 14.3792 6.11692C14.3792 5.01623 13.2966 4.12071 11.9654 4.12071C10.6342 4.12071 9.55162 5.01623 9.55162 6.11692C9.55162 6.4502 9.28145 6.72037 8.94817 6.72037C8.6149 6.72037 8.34473 6.4502 8.34473 6.11692C8.34473 4.35063 9.96861 2.91382 11.9654 2.91382C13.9622 2.91382 15.5861 4.35063 15.5861 6.11692C15.5312 7.58943 14.495 8.84187 13.0589 9.17158C12.7614 9.26377 12.5614 9.54219 12.5689 9.85347V10.7586C12.5689 11.0919 12.2987 11.3621 11.9654 11.3621Z" fill="white"/>
<path d="M11.9655 13.7759C12.2988 13.7759 12.569 13.5057 12.569 13.1724C12.569 12.8391 12.2988 12.569 11.9655 12.569C11.6322 12.569 11.3621 12.8391 11.3621 13.1724C11.3621 13.5057 11.6322 13.7759 11.9655 13.7759Z" fill="white"/>
</g>
<defs>
<clipPath id="clip0_100_204">
<rect width="35" height="35" fill="white" transform="translate(0.5 0.5)"/>
</clipPath>
</defs>
</svg>
