<svg width="465" height="538" viewBox="0 0 465 538" fill="none" xmlns="http://www.w3.org/2000/svg">
<rect width="465" height="538" rx="10" fill="#F2F2F2"/>
<path fill-rule="evenodd" clip-rule="evenodd" d="M174.17 277.206C159.679 277.206 147.932 265.459 147.932 250.968C147.932 236.566 159.97 224.701 174.325 224.731C174.348 224.731 174.367 224.713 174.369 224.691C176.597 200.192 197.194 181 222.273 181C241.1 181 257.401 191.816 265.301 207.573C265.309 207.59 265.328 207.6 265.346 207.597C286.022 204.62 305.36 221.174 305.36 242.222C305.36 260.363 291.553 275.278 273.874 277.034L229.927 277.114V244.021L244.004 258.098C245.286 259.379 247.363 259.379 248.644 258.098C249.926 256.817 249.926 254.739 248.644 253.458L231.749 236.562C228.931 233.744 224.361 233.744 221.543 236.562L204.647 253.458C203.366 254.739 203.366 256.817 204.647 258.098C205.929 259.379 208.006 259.379 209.288 258.098L223.365 244.021V277.126L179.417 277.206H174.17ZM231.749 236.562L229.429 238.882L229.927 244.021L231.749 236.562ZM223.365 277.126L229.927 277.114V299.071C229.927 300.884 228.458 302.353 226.646 302.353C224.834 302.353 223.365 300.884 223.365 299.071V277.126Z" fill="#ABABAB"/>
<path d="M83.36 336.819V347.187C83.36 348.323 83.656 349.195 84.248 349.803C84.84 350.395 85.672 350.691 86.744 350.691C87.832 350.691 88.672 350.395 89.264 349.803C89.856 349.195 90.152 348.323 90.152 347.187V336.819H93.536V347.163C93.536 348.587 93.224 349.795 92.6 350.787C91.992 351.763 91.168 352.499 90.128 352.995C89.104 353.491 87.96 353.739 86.696 353.739C85.448 353.739 84.312 353.491 83.288 352.995C82.28 352.499 81.48 351.763 80.888 350.787C80.296 349.795 80 348.587 80 347.163V336.819H83.36ZM100.142 342.195C100.574 341.587 101.166 341.083 101.918 340.683C102.686 340.267 103.558 340.059 104.534 340.059C105.67 340.059 106.694 340.339 107.606 340.899C108.534 341.459 109.262 342.259 109.79 343.299C110.334 344.323 110.606 345.515 110.606 346.875C110.606 348.235 110.334 349.443 109.79 350.499C109.262 351.539 108.534 352.347 107.606 352.923C106.694 353.499 105.67 353.787 104.534 353.787C103.558 353.787 102.694 353.587 101.942 353.187C101.206 352.787 100.606 352.283 100.142 351.675V359.907H96.782V340.275H100.142V342.195ZM107.174 346.875C107.174 346.075 107.006 345.387 106.67 344.811C106.35 344.219 105.918 343.771 105.374 343.467C104.846 343.163 104.27 343.011 103.646 343.011C103.038 343.011 102.462 343.171 101.918 343.491C101.39 343.795 100.958 344.243 100.622 344.835C100.302 345.427 100.142 346.123 100.142 346.923C100.142 347.723 100.302 348.419 100.622 349.011C100.958 349.603 101.39 350.059 101.918 350.379C102.462 350.683 103.038 350.835 103.646 350.835C104.27 350.835 104.846 350.675 105.374 350.355C105.918 350.035 106.35 349.579 106.67 348.987C107.006 348.395 107.174 347.691 107.174 346.875ZM116.408 335.811V353.571H113.048V335.811H116.408ZM125.632 353.787C124.352 353.787 123.2 353.507 122.176 352.947C121.152 352.371 120.344 351.563 119.752 350.523C119.176 349.483 118.888 348.283 118.888 346.923C118.888 345.563 119.184 344.363 119.776 343.323C120.384 342.283 121.208 341.483 122.248 340.923C123.288 340.347 124.448 340.059 125.728 340.059C127.008 340.059 128.168 340.347 129.208 340.923C130.248 341.483 131.064 342.283 131.656 343.323C132.264 344.363 132.568 345.563 132.568 346.923C132.568 348.283 132.256 349.483 131.632 350.523C131.024 351.563 130.192 352.371 129.136 352.947C128.096 353.507 126.928 353.787 125.632 353.787ZM125.632 350.859C126.24 350.859 126.808 350.715 127.336 350.427C127.88 350.123 128.312 349.675 128.632 349.083C128.952 348.491 129.112 347.771 129.112 346.923C129.112 345.659 128.776 344.691 128.104 344.019C127.448 343.331 126.64 342.987 125.68 342.987C124.72 342.987 123.912 343.331 123.256 344.019C122.616 344.691 122.296 345.659 122.296 346.923C122.296 348.187 122.608 349.163 123.232 349.851C123.872 350.523 124.672 350.859 125.632 350.859ZM134.168 346.875C134.168 345.531 134.432 344.339 134.96 343.299C135.504 342.259 136.232 341.459 137.144 340.899C138.072 340.339 139.104 340.059 140.24 340.059C141.232 340.059 142.096 340.259 142.832 340.659C143.584 341.059 144.184 341.563 144.632 342.171V340.275H148.016V353.571H144.632V351.627C144.2 352.251 143.6 352.771 142.832 353.187C142.08 353.587 141.208 353.787 140.216 353.787C139.096 353.787 138.072 353.499 137.144 352.923C136.232 352.347 135.504 351.539 134.96 350.499C134.432 349.443 134.168 348.235 134.168 346.875ZM144.632 346.923C144.632 346.107 144.472 345.411 144.152 344.835C143.832 344.243 143.4 343.795 142.856 343.491C142.312 343.171 141.728 343.011 141.104 343.011C140.48 343.011 139.904 343.163 139.376 343.467C138.848 343.771 138.416 344.219 138.08 344.811C137.76 345.387 137.6 346.075 137.6 346.875C137.6 347.675 137.76 348.379 138.08 348.987C138.416 349.579 138.848 350.035 139.376 350.355C139.92 350.675 140.496 350.835 141.104 350.835C141.728 350.835 142.312 350.683 142.856 350.379C143.4 350.059 143.832 349.611 144.152 349.035C144.472 348.443 144.632 347.739 144.632 346.923ZM150.434 346.875C150.434 345.531 150.698 344.339 151.226 343.299C151.77 342.259 152.506 341.459 153.434 340.899C154.362 340.339 155.394 340.059 156.53 340.059C157.394 340.059 158.218 340.251 159.002 340.635C159.786 341.003 160.41 341.499 160.874 342.123V335.811H164.282V353.571H160.874V351.603C160.458 352.259 159.874 352.787 159.122 353.187C158.37 353.587 157.498 353.787 156.506 353.787C155.386 353.787 154.362 353.499 153.434 352.923C152.506 352.347 151.77 351.539 151.226 350.499C150.698 349.443 150.434 348.235 150.434 346.875ZM160.898 346.923C160.898 346.107 160.738 345.411 160.418 344.835C160.098 344.243 159.666 343.795 159.122 343.491C158.578 343.171 157.994 343.011 157.37 343.011C156.746 343.011 156.17 343.163 155.642 343.467C155.114 343.771 154.682 344.219 154.346 344.811C154.026 345.387 153.866 346.075 153.866 346.875C153.866 347.675 154.026 348.379 154.346 348.987C154.682 349.579 155.114 350.035 155.642 350.355C156.186 350.675 156.762 350.835 157.37 350.835C157.994 350.835 158.578 350.683 159.122 350.379C159.666 350.059 160.098 349.611 160.418 349.035C160.738 348.443 160.898 347.739 160.898 346.923ZM186.602 336.819L180.938 347.739V353.571H177.578V347.739L171.89 336.819H175.682L179.282 344.475L182.858 336.819H186.602ZM194.444 353.787C193.164 353.787 192.012 353.507 190.988 352.947C189.964 352.371 189.156 351.563 188.564 350.523C187.988 349.483 187.7 348.283 187.7 346.923C187.7 345.563 187.996 344.363 188.588 343.323C189.196 342.283 190.02 341.483 191.06 340.923C192.1 340.347 193.26 340.059 194.54 340.059C195.82 340.059 196.98 340.347 198.02 340.923C199.06 341.483 199.876 342.283 200.468 343.323C201.076 344.363 201.38 345.563 201.38 346.923C201.38 348.283 201.068 349.483 200.444 350.523C199.836 351.563 199.004 352.371 197.948 352.947C196.908 353.507 195.74 353.787 194.444 353.787ZM194.444 350.859C195.052 350.859 195.62 350.715 196.148 350.427C196.692 350.123 197.124 349.675 197.444 349.083C197.764 348.491 197.924 347.771 197.924 346.923C197.924 345.659 197.588 344.691 196.916 344.019C196.26 343.331 195.452 342.987 194.492 342.987C193.532 342.987 192.724 343.331 192.068 344.019C191.428 344.691 191.108 345.659 191.108 346.923C191.108 348.187 191.42 349.163 192.044 349.851C192.684 350.523 193.484 350.859 194.444 350.859ZM216.397 340.275V353.571H213.013V351.891C212.581 352.467 212.013 352.923 211.309 353.259C210.621 353.579 209.869 353.739 209.053 353.739C208.013 353.739 207.093 353.523 206.293 353.091C205.493 352.643 204.861 351.995 204.397 351.147C203.949 350.283 203.725 349.259 203.725 348.075V340.275H207.085V347.595C207.085 348.651 207.349 349.467 207.877 350.043C208.405 350.603 209.125 350.883 210.037 350.883C210.965 350.883 211.693 350.603 212.221 350.043C212.749 349.467 213.013 348.651 213.013 347.595V340.275H216.397ZM223.072 342.339C223.504 341.635 224.064 341.083 224.752 340.683C225.456 340.283 226.256 340.083 227.152 340.083V343.611H226.264C225.208 343.611 224.408 343.859 223.864 344.355C223.336 344.851 223.072 345.715 223.072 346.947V353.571H219.712V340.275H223.072V342.339ZM236.838 338.691C236.246 338.691 235.75 338.507 235.35 338.139C234.966 337.755 234.774 337.283 234.774 336.723C234.774 336.163 234.966 335.699 235.35 335.331C235.75 334.947 236.246 334.755 236.838 334.755C237.43 334.755 237.918 334.947 238.302 335.331C238.702 335.699 238.902 336.163 238.902 336.723C238.902 337.283 238.702 337.755 238.302 338.139C237.918 338.507 237.43 338.691 236.838 338.691ZM238.494 340.275V353.571H235.134V340.275H238.494ZM258.326 340.083C259.958 340.083 261.27 340.587 262.262 341.595C263.27 342.587 263.774 343.979 263.774 345.771V353.571H260.414V346.227C260.414 345.187 260.15 344.395 259.622 343.851C259.094 343.291 258.374 343.011 257.462 343.011C256.55 343.011 255.822 343.291 255.278 343.851C254.75 344.395 254.486 345.187 254.486 346.227V353.571H251.126V346.227C251.126 345.187 250.862 344.395 250.334 343.851C249.806 343.291 249.086 343.011 248.174 343.011C247.246 343.011 246.51 343.291 245.966 343.851C245.438 344.395 245.174 345.187 245.174 346.227V353.571H241.814V340.275H245.174V341.883C245.606 341.323 246.158 340.883 246.83 340.563C247.518 340.243 248.27 340.083 249.086 340.083C250.126 340.083 251.054 340.307 251.87 340.755C252.686 341.187 253.318 341.811 253.766 342.627C254.198 341.859 254.822 341.243 255.638 340.779C256.47 340.315 257.366 340.083 258.326 340.083ZM266.098 346.875C266.098 345.531 266.362 344.339 266.89 343.299C267.434 342.259 268.162 341.459 269.074 340.899C270.002 340.339 271.034 340.059 272.17 340.059C273.162 340.059 274.026 340.259 274.762 340.659C275.514 341.059 276.114 341.563 276.562 342.171V340.275H279.946V353.571H276.562V351.627C276.13 352.251 275.53 352.771 274.762 353.187C274.01 353.587 273.138 353.787 272.146 353.787C271.026 353.787 270.002 353.499 269.074 352.923C268.162 352.347 267.434 351.539 266.89 350.499C266.362 349.443 266.098 348.235 266.098 346.875ZM276.562 346.923C276.562 346.107 276.402 345.411 276.082 344.835C275.762 344.243 275.33 343.795 274.786 343.491C274.242 343.171 273.658 343.011 273.034 343.011C272.41 343.011 271.834 343.163 271.306 343.467C270.778 343.771 270.346 344.219 270.01 344.811C269.69 345.387 269.53 346.075 269.53 346.875C269.53 347.675 269.69 348.379 270.01 348.987C270.346 349.579 270.778 350.035 271.306 350.355C271.85 350.675 272.426 350.835 273.034 350.835C273.658 350.835 274.242 350.683 274.786 350.379C275.33 350.059 275.762 349.611 276.082 349.035C276.402 348.443 276.562 347.739 276.562 346.923ZM288.436 340.059C289.428 340.059 290.3 340.259 291.052 340.659C291.804 341.043 292.396 341.547 292.828 342.171V340.275H296.212V353.667C296.212 354.899 295.964 355.995 295.468 356.955C294.972 357.931 294.228 358.699 293.236 359.259C292.244 359.835 291.044 360.123 289.636 360.123C287.748 360.123 286.196 359.683 284.98 358.803C283.78 357.923 283.1 356.723 282.94 355.203H286.276C286.452 355.811 286.828 356.291 287.404 356.643C287.996 357.011 288.708 357.195 289.54 357.195C290.516 357.195 291.308 356.899 291.916 356.307C292.524 355.731 292.828 354.851 292.828 353.667V351.603C292.396 352.227 291.796 352.747 291.028 353.163C290.276 353.579 289.412 353.787 288.436 353.787C287.316 353.787 286.292 353.499 285.364 352.923C284.436 352.347 283.7 351.539 283.156 350.499C282.628 349.443 282.364 348.235 282.364 346.875C282.364 345.531 282.628 344.339 283.156 343.299C283.7 342.259 284.428 341.459 285.34 340.899C286.268 340.339 287.3 340.059 288.436 340.059ZM292.828 346.923C292.828 346.107 292.668 345.411 292.348 344.835C292.028 344.243 291.596 343.795 291.052 343.491C290.508 343.171 289.924 343.011 289.3 343.011C288.676 343.011 288.1 343.163 287.572 343.467C287.044 343.771 286.612 344.219 286.276 344.811C285.956 345.387 285.796 346.075 285.796 346.875C285.796 347.675 285.956 348.379 286.276 348.987C286.612 349.579 287.044 350.035 287.572 350.355C288.116 350.675 288.692 350.835 289.3 350.835C289.924 350.835 290.508 350.683 291.052 350.379C291.596 350.059 292.028 349.611 292.348 349.035C292.668 348.443 292.828 347.739 292.828 346.923ZM311.853 346.635C311.853 347.115 311.821 347.547 311.757 347.931H302.037C302.117 348.891 302.453 349.643 303.045 350.187C303.637 350.731 304.365 351.003 305.229 351.003C306.477 351.003 307.365 350.467 307.893 349.395H311.517C311.133 350.675 310.397 351.731 309.309 352.563C308.221 353.379 306.885 353.787 305.301 353.787C304.021 353.787 302.869 353.507 301.845 352.947C300.837 352.371 300.045 351.563 299.469 350.523C298.909 349.483 298.629 348.283 298.629 346.923C298.629 345.547 298.909 344.339 299.469 343.299C300.029 342.259 300.813 341.459 301.821 340.899C302.829 340.339 303.989 340.059 305.301 340.059C306.565 340.059 307.693 340.331 308.685 340.875C309.693 341.419 310.469 342.195 311.013 343.203C311.573 344.195 311.853 345.339 311.853 346.635ZM308.373 345.675C308.357 344.811 308.045 344.123 307.437 343.611C306.829 343.083 306.085 342.819 305.205 342.819C304.373 342.819 303.669 343.075 303.093 343.587C302.533 344.083 302.189 344.779 302.061 345.675H308.373ZM333.921 336.819V353.571H330.561V346.443H323.385V353.571H320.025V336.819H323.385V343.707H330.561V336.819H333.921ZM349.588 346.635C349.588 347.115 349.556 347.547 349.492 347.931H339.772C339.852 348.891 340.188 349.643 340.78 350.187C341.372 350.731 342.1 351.003 342.964 351.003C344.212 351.003 345.1 350.467 345.628 349.395H349.252C348.868 350.675 348.132 351.731 347.044 352.563C345.956 353.379 344.62 353.787 343.036 353.787C341.756 353.787 340.604 353.507 339.58 352.947C338.572 352.371 337.78 351.563 337.204 350.523C336.644 349.483 336.364 348.283 336.364 346.923C336.364 345.547 336.644 344.339 337.204 343.299C337.764 342.259 338.548 341.459 339.556 340.899C340.564 340.339 341.724 340.059 343.036 340.059C344.3 340.059 345.428 340.331 346.42 340.875C347.428 341.419 348.204 342.195 348.748 343.203C349.308 344.195 349.588 345.339 349.588 346.635ZM346.108 345.675C346.092 344.811 345.78 344.123 345.172 343.611C344.564 343.083 343.82 342.819 342.94 342.819C342.108 342.819 341.404 343.075 340.828 343.587C340.268 344.083 339.924 344.779 339.796 345.675H346.108ZM355.4 342.339C355.832 341.635 356.392 341.083 357.08 340.683C357.784 340.283 358.584 340.083 359.48 340.083V343.611H358.592C357.536 343.611 356.736 343.859 356.192 344.355C355.664 344.851 355.4 345.715 355.4 346.947V353.571H352.04V340.275H355.4V342.339ZM374.103 346.635C374.103 347.115 374.071 347.547 374.007 347.931H364.287C364.367 348.891 364.703 349.643 365.295 350.187C365.887 350.731 366.615 351.003 367.479 351.003C368.727 351.003 369.615 350.467 370.143 349.395H373.767C373.383 350.675 372.647 351.731 371.559 352.563C370.471 353.379 369.135 353.787 367.551 353.787C366.271 353.787 365.119 353.507 364.095 352.947C363.087 352.371 362.295 351.563 361.719 350.523C361.159 349.483 360.879 348.283 360.879 346.923C360.879 345.547 361.159 344.339 361.719 343.299C362.279 342.259 363.063 341.459 364.071 340.899C365.079 340.339 366.239 340.059 367.551 340.059C368.815 340.059 369.943 340.331 370.935 340.875C371.943 341.419 372.719 342.195 373.263 343.203C373.823 344.195 374.103 345.339 374.103 346.635ZM370.623 345.675C370.607 344.811 370.295 344.123 369.687 343.611C369.079 343.083 368.335 342.819 367.455 342.819C366.623 342.819 365.919 343.075 365.343 343.587C364.783 344.083 364.439 344.779 364.311 345.675H370.623Z" fill="#6F6F6F"/>
</svg>
