<?xml version="1.0" encoding="utf-8"?><svg xmlns="http://www.w3.org/2000/svg" xmlns:xlink="http://www.w3.org/1999/xlink" width="1920" height="1080" preserveAspectRatio="xMidYMid" viewBox="0 0 1920 1080" style="z-index:1;margin-right:-2px;display:block;background-repeat-y:initial;background-repeat-x:initial;background-color:rgb(254, 208, 73);animation-play-state:paused" ><g transform="translate(960,540) scale(1,1) translate(-960,-540)" style="transform:matrix(1, 0, 0, 1, 0, 0);animation-play-state:paused" ><linearGradient id="lg-0.9909628089960336" x1="0" x2="1" y1="0" y2="0" style="animation-play-state:paused" ><stop stop-color="#749878" offset="0" style="animation-play-state:paused" ></stop>

  
<stop stop-color="#749878" offset="1" style="animation-play-state:paused" ></stop></linearGradient>
<path d="M 0 0 L 0 881.331 Q 192 937.779 384 907.695 T 768 837.404 T 1152 586.259 T 1536 565.492 T 1920 431.349 L 1920 0 Z" fill="url(#lg-0.9909628089960336)" opacity="0.4" style="opacity:0.4;animation-play-state:paused" ></path>
<path d="M 0 0 L 0 974.54 Q 192 815.056 384 797.903 T 768 671.617 T 1152 696.31 T 1536 624.363 T 1920 467.544 L 1920 0 Z" fill="url(#lg-0.9909628089960336)" opacity="0.4" style="opacity:0.4;animation-play-state:paused" ></path>
<path d="M 0 0 L 0 995.417 Q 192 811.174 384 784.473 T 768 630.753 T 1152 678.53 T 1536 482.163 T 1920 417.178 L 1920 0 Z" fill="url(#lg-0.9909628089960336)" opacity="0.4" style="opacity:0.4;animation-play-state:paused" ></path>
<path d="M 0 0 L 0 806.777 Q 192 966.028 384 936.822 T 768 774.39 T 1152 597.141 T 1536 512.026 T 1920 634.461 L 1920 0 Z" fill="url(#lg-0.9909628089960336)" opacity="0.4" style="opacity:0.4;animation-play-state:paused" ></path>
<path d="M 0 0 L 0 996.076 Q 192 823.763 384 791.333 T 768 769.546 T 1152 681.236 T 1536 610.82 T 1920 502.752 L 1920 0 Z" fill="url(#lg-0.9909628089960336)" opacity="0.4" style="opacity:0.4;animation-play-state:paused" ></path></g></svg>