<?xml version="1.0" encoding="utf-8"?><svg xmlns="http://www.w3.org/2000/svg" xmlns:xlink="http://www.w3.org/1999/xlink" width="1920" height="1080" preserveAspectRatio="xMidYMid" viewBox="0 0 1920 1080" style="z-index:1;margin-right:-2px;display:block;background-repeat-y:initial;background-repeat-x:initial;background-color:rgb(254, 208, 73);animation-play-state:paused" ><g transform="translate(960,540) scale(1,1) translate(-960,-540)" style="transform:matrix(1, 0, 0, 1, 0, 0);animation-play-state:paused" ><linearGradient id="lg-0.3145580674416084" x1="0" x2="1" y1="0" y2="0" style="animation-play-state:paused" ><stop stop-color="#526c55" offset="0" style="animation-play-state:paused" ></stop>

  
<stop stop-color="#526c55" offset="1" style="animation-play-state:paused" ></stop></linearGradient>
<path d="M 0 0 L 0 1337.57 Q 192 1011.9 384 967.032 T 768 1055.63 T 1152 840.537 T 1536 726.853 T 1920 626.232 L 1920 0 Z" fill="url(#lg-0.3145580674416084)" opacity="0.4" style="opacity:0.4;animation-play-state:paused" ></path>
<path d="M 0 0 L 0 1296.72 Q 192 1111.02 384 1089.53 T 768 884.4 T 1152 764.464 T 1536 660.9 T 1920 585.729 L 1920 0 Z" fill="url(#lg-0.3145580674416084)" opacity="0.4" style="opacity:0.4;animation-play-state:paused" ></path>
<path d="M 0 0 L 0 1111.39 Q 192 1052.84 384 1036.3 T 768 896.054 T 1152 950.27 T 1536 715.849 T 1920 470.232 L 1920 0 Z" fill="url(#lg-0.3145580674416084)" opacity="0.4" style="opacity:0.4;animation-play-state:paused" ></path>
<path d="M 0 0 L 0 1176.71 Q 192 1261.05 384 1225.52 T 768 1064.67 T 1152 831.884 T 1536 660.868 T 1920 443.15 L 1920 0 Z" fill="url(#lg-0.3145580674416084)" opacity="0.4" style="opacity:0.4;animation-play-state:paused" ></path>
<path d="M 0 0 L 0 1221.29 Q 192 1124.79 384 1096.55 T 768 919.804 T 1152 1001.8 T 1536 772.019 T 1920 675.831 L 1920 0 Z" fill="url(#lg-0.3145580674416084)" opacity="0.4" style="opacity:0.4;animation-play-state:paused" ></path></g></svg>